<svg xmlns="http://www.w3.org/2000/svg" width="450" height="450" viewBox="0 0 272 273" fill="none">
  <path fill-rule="evenodd" clip-rule="evenodd" d="M85.2908 140.228C85.722 139.563 85.4838 140.885 85.9086 140.101C85.5875 139.371 85.8673 137.995 85.2505 137.583C85.3463 138.32 85.0577 138.357 84.8449 139.096C85.2808 138.082 85.7852 139.529 85.2908 140.228ZM101.124 141.093C101.389 141.102 101.228 140.585 101.466 140.547C103.35 141.109 105.174 142.83 107.581 142.202C108.818 143.735 110.784 143.607 112.332 144.074C113.451 144.412 114.469 145.68 115.976 144.27C113.854 143.34 111.417 143.078 109.819 141.942C107.433 141.914 104.794 140.554 101.659 139.621C101.547 139.382 102.051 138.481 101.83 138.36C101.533 138.948 101.221 139.284 100.892 139.371C96.6949 137.593 93.0925 136.437 90.3679 135.295C90.2579 135.038 90.6261 133.366 90.0493 134.204C90.1314 134.327 90.3196 135.183 89.9839 135.17C88.5364 134.006 83.3353 133.522 81.8465 131.211C81.9678 131.32 81.9272 131.603 81.8889 131.884C79.7606 130.947 77.4135 131.335 76.1153 129.68C77.7201 131.553 79.4653 133.87 81.9513 132.891C81.8449 133.186 81.738 133.48 81.6312 133.774C82.7378 132.563 83.1621 135.21 83.718 135.111C86.009 132.888 86.0355 136.198 87.937 136.48C88.8392 134.954 90.1078 136.288 90.4723 136.975C93.6683 137.834 97.6649 138.996 101.124 141.093ZM74.9628 131.28C74.5909 130.774 75.2074 130.498 75.5176 130.144C75.4557 129.385 74.7398 129.361 74.1115 129.687C74.9979 129.397 74.0976 131.417 74.4305 130.778C74.6434 130.841 74.799 129.984 75.0068 129.977C74.8307 130.493 74.646 130.883 74.451 131.114C74.8896 130.803 74.6566 132.028 74.9628 131.28ZM73.5986 131.495C73.9403 128.575 71.3155 129.688 70.4906 127.851C70.1914 128.404 69.8647 128.527 69.5317 128.527C69.0178 128.186 67.903 126.983 67.1234 128.075C67.5859 128.174 67.4061 128.965 67.6977 129.248C68.1523 128.431 69.3214 128.621 69.4445 129.159C68.9824 130.308 69.1289 128.812 68.7203 129.58C69.6854 129.758 72.2764 129.334 73.5986 131.495ZM66.9742 127.696C66.2205 127.76 65.7976 126.075 64.9502 127.369C65.6333 127.105 66.4297 128.556 66.9742 127.696ZM78.5442 130.468C78.8958 130.558 79.4033 129.994 79.3552 129.415C79.0503 129.216 78.7874 129.685 78.5442 130.468ZM75.179 128.715C75.3598 128.284 75.5278 127.614 75.7343 127.579C76.1853 127.989 77.3656 128.514 77.8856 127.951C73.8922 125.687 69.3605 124.316 66.9153 122.741C67.038 122.708 67.1705 122.815 67.2778 122.529C66.9148 122.064 66.6399 123.016 66.318 123.205C65.198 121.808 63.0458 121.832 62.0489 120.775C62.0895 120.505 61.9044 120.479 61.7604 120.409C61.837 120.55 61.943 120.662 62.0489 120.775C62.0356 120.861 62.0001 120.973 61.9293 121.122C60.698 120.38 60.1262 121.315 59.842 119.785C59.4531 120.891 58.9104 119.567 58.521 120.672C62.8072 123.136 69.896 124.804 74.3277 127.123C74.2685 127.989 73.5576 127.51 73.8792 127.966C74.2933 127.29 74.1439 128.724 74.6253 127.878C74.3403 126.301 75.1011 127.74 75.179 128.715ZM43.2433 116.699C42.9642 117.711 43.6345 117.369 44.0108 116.948C43.6209 116.71 43.7533 115.911 43.074 115.984C42.8399 116.475 42.9902 116.801 42.7539 116.868C42.2363 116.947 43.0252 115.619 42.4348 115.777C42.2596 116.311 42.0578 116.425 41.8371 116.243C41.318 117.895 42.5566 118.063 43.2433 116.699ZM38.8969 115.287C39.1316 116.139 40.3344 116.655 41.1121 116.664C40.9994 113.917 38.7796 116.165 38.5578 113.861C38.371 114.213 38.1743 114.409 37.9606 114.324C37.3805 115.991 38.3315 115.705 38.8969 115.287ZM44.3753 114.761C43.8497 114.969 44.2321 114.198 44.0768 114.008C43.8631 114.591 43.5929 114.268 43.3946 115.102C43.8199 115.411 43.8415 115.662 44.3753 114.761ZM55.7932 119.129C52.8788 118.129 50.5851 116.141 47.4849 116.431C49.9617 117.416 52.3787 118.814 55.7932 119.129ZM59.1372 122.519C59.0653 122.477 59.0014 122.425 59.1158 122.182C59.3295 122.271 59.5253 122.063 59.713 121.719C59.3116 121.302 58.9811 122.032 58.6259 122.352C58.9659 122.149 58.7329 123.372 59.1372 122.519ZM57.0301 118.873C56.6654 119.719 56.1951 118.863 55.8151 119.466C56.0439 119.637 55.9412 120.166 56.0054 120.515C57.3028 119.388 57.1299 121.395 58.4992 120.338C58.3127 119.209 56.1725 120.247 57.0301 118.873ZM72.3932 122.217C72.2186 122.025 72.5571 121.846 72.7133 121.334C71.9485 121.942 72.7692 120.26 72.0532 120.79C72.2597 121.041 72.1573 121.337 71.86 121.715C72.0011 121.828 72.1764 122.773 72.3932 122.217ZM48.3858 110.798C48.6559 110.449 48.9038 109.743 49.1958 109.746C48.7169 111.207 50.1692 110.946 50.1984 109.741C49.6508 110.615 48.5471 108.324 46.8747 108.662C46.7739 110.663 47.6927 110.121 48.3858 110.798ZM41.5057 106.917C41.0562 106.941 40.6082 105.399 40.2277 106.502C40.3163 106.868 40.9698 108.189 41.5057 106.917ZM38.4162 105.585C38.3923 105.015 37.8549 105.103 37.5428 105.63C37.7865 105.94 37.963 106.091 38.4162 105.585ZM37.5213 105.296C37.4674 104.571 36.4892 103.906 35.8389 104.419C36.4982 104.846 36.8105 105.794 37.5213 105.296ZM112.944 127.817C112.251 127.063 111.643 126.594 110.899 127.153C111.11 127.767 112.378 128.18 112.944 127.817ZM110.515 127.028C110.299 126.885 109.944 125.993 109.493 126.696C109.513 127.049 110.185 127.602 110.515 127.028ZM121.488 130.262C122.122 130.932 123.243 130.705 124.024 130.757C123.362 130.325 122.741 129.899 121.488 130.262ZM116.886 128.768C115.665 128.449 114.314 127.531 113.093 128.194C114.844 128.404 115.438 129.47 116.886 128.768ZM60.0412 112.937C60.2521 113.085 60.8497 114.268 61.2982 113.019C60.6089 113.094 60.6264 112.027 60.0412 112.937ZM50.5605 109.53C50.18 110.426 50.7415 110.928 51.0928 110.031C51.0614 109.3 50.5859 110.156 50.5605 109.53ZM41.4198 107.55C42.9698 107.133 43.8323 109.33 45.5959 108.246C44.0894 108.008 43.3158 106.211 41.4198 107.55ZM54.4165 111.112C53.1925 111.025 52.2959 109.094 51.0065 110.664C52.2714 110.518 53.132 112.982 54.4165 111.112ZM84.9721 117.086C84.6621 116.404 83.7665 116.352 83.7378 115.368C84.6035 116.009 86.4884 117.099 87.2957 116.194C85.0652 114.984 82.7423 114.983 80.8415 113.111C80.8955 112.874 81.0485 112.529 80.9265 112.481C80.7846 112.873 80.6418 113.267 80.4995 113.659C80.2747 113.087 79.1406 112.543 78.6039 113.371C79.3353 114.988 81.0717 115.597 82.2667 115.878C82.2726 115.709 81.8033 115.241 82.2243 115.205C82.8632 116.014 84.0458 117.184 84.9721 117.086ZM75.9604 113.172C76.485 112.711 76.3228 113.792 76.8347 113.127C76.6725 112.982 76.7561 111.686 76.4088 112.331C76.486 112.427 76.4686 112.625 76.3238 112.96C76.1519 112.879 75.8109 112.867 75.9604 113.172ZM75.7051 113.089C75.8475 112.697 75.9898 112.304 76.1326 111.911C73.9538 110.315 72.3453 110.411 69.8277 109.204C71.2079 112.471 73.9262 110.491 75.7051 113.089ZM69.3159 109.039C68.9594 108.356 66.5649 108.91 67.356 107.745C67.3725 107.383 65.9545 108.326 66.0122 108.296C66.8943 108.774 68.551 110.059 69.3159 109.039ZM65.2457 108.045C65.3876 107.64 65.5407 107.42 65.6941 107.204C65.5107 106.926 65.516 106.011 65.0549 106.997C65.2837 107.168 65.1815 107.697 65.2457 108.045ZM87.7885 114.051C87.2536 113.252 85.9142 113.321 86.0209 111.832C86.2356 111.92 86.4314 111.71 86.6177 111.368C85.7524 112.226 86.7704 110.021 86.0863 110.866C85.723 111.739 84.0398 110.286 83.593 111.042C84.314 112.938 85.9493 114.563 87.7885 114.051ZM92.5414 113.948C91.8785 111.661 91.475 114.322 89.8355 112.741C89.8671 114.095 91.9735 113.843 90.6415 115.637C91.8291 114.2 93.3096 117.516 94.5834 116.588C94.5302 115.929 93.8895 115.903 94.2238 114.825C94.2356 115.21 94.7739 115.123 95.0976 114.778C94.1192 114.699 93.4828 113.109 92.5414 113.948ZM95.1186 115.115C95.447 115.027 95.8258 115.752 96.1203 115.111C95.7158 114.819 95.6255 114.312 95.1186 115.115ZM146.534 126.218C148.424 126.375 148.386 127.257 150.071 126.709C149.418 126.043 147.658 124.647 146.534 126.218ZM156.421 128.113C156.016 127.892 155.302 128.005 155.249 127.404C155.167 128.568 155.803 128.875 156.421 128.113ZM97.8308 108.426C96.5211 108.246 96.186 106.569 95.2956 107.931C95.9114 107.431 97.0923 109.645 97.8308 108.426ZM85.9661 102.927C86.073 102.633 86.1803 102.337 86.2867 102.044C86.1637 101.631 85.2222 101.838 85.3294 100.744C84.5372 102.54 83.7758 100.167 82.6864 100.546C82.98 102.515 84.9386 101.746 85.9661 102.927ZM81.9618 100.967C81.6602 98.6885 79.4543 100.224 79.2583 97.7849C81.4389 98.2722 82.9982 100.128 85.7984 100.239C85.672 99.8966 85.1969 99.9304 85.2451 99.401C86.5237 99.0616 86.7031 100.129 86.9908 101.285C87.1904 100.464 87.4615 100.801 87.6945 100.526C87.8081 101.32 88.0695 102.523 88.8874 101.572C85.315 97.0626 76.7374 94.4308 72.7193 93.3583C75.0687 95.1475 77.1954 94.6595 78.8114 96.6539C77.4988 97.7424 77.1345 94.5464 75.4023 96.2045C76.233 96.126 77.0164 97.4211 77.7443 97.6247C77.9653 96.7516 79.0117 98.2252 77.977 99.3446C79.2022 99.7484 81.021 100.251 81.9618 100.967ZM74.2303 95.4946C73.0384 94.2956 72.1315 94.5059 70.9071 94.4144C72.158 95.3624 73.0165 96.5628 74.2303 95.4946ZM63.0668 91.2099C62.7329 91.2125 62.4067 91.3336 62.1075 91.8853C62.493 92.0773 63.0215 93.0409 63.6415 92.3842C63.5382 91.7429 62.7343 91.8564 62.8325 91.464C62.9154 91.4726 62.9992 91.4689 63.0668 91.2099ZM61.2331 91.9322C61.8433 90.4169 61.8275 91.933 62.0865 91.5502C61.9148 91.4085 62.232 90.8761 62.4071 90.6668C61.2129 91.085 61.3112 89.704 59.9343 91.1807C59.7274 90.5065 58.6749 90.7448 58.9551 89.5456C58.5298 90.0629 58.8313 89.9243 58.5285 90.7225C59.2904 90.7383 59.4536 91.4004 59.8479 91.8115C60.3799 90.2352 60.9009 91.7001 61.2331 91.9322ZM57.6127 90.0967C56.6587 90.1376 56.8492 88.809 56.1633 88.9691C56.4752 89.4707 56.0686 90.7441 56.5452 91.0688C56.7517 89.4036 56.9326 91.1153 57.6127 90.0967ZM90.4653 100.767C91.3262 103.301 93.8059 103.164 95.427 104.026C95.1608 103.847 95.4186 103.144 95.7266 102.804C93.9413 101.843 92.2392 100.679 90.4653 100.767ZM66.5812 93.3388C66.8313 93.3454 66.9427 94.672 66.9857 93.801C66.9137 93.7575 66.8508 93.7064 66.9647 93.4632C67.4509 93.4782 67.6395 93.8128 67.8805 94.0904C68.299 93.0331 66.8837 93.0251 66.5812 93.3388ZM68.335 87.3262C68.2842 86.4802 67.7104 87.502 67.3329 87.3297C67.3924 87.1667 67.3503 86.963 67.2055 87.288C67.3069 88.2182 67.7446 87.7849 68.335 87.3262ZM95.8563 144.977C95.2122 145.704 95.5848 145.3 95.0457 146.031C91.8748 144.131 89.9364 143.559 86.9083 142.072C87.0194 141.84 87.143 141.82 87.2498 141.524C86.8414 141.582 85.735 142.438 85.8232 140.73C85.6257 140.907 85.435 141.204 85.2464 141.532C85.1138 141.435 85.3339 140.959 85.4392 140.607C85.3157 140.629 85.2049 140.861 85.0776 140.818C84.6079 140.997 85.3817 141.227 84.7565 141.701C83.9445 141.169 84.5414 139.988 83.3499 141.245C82.7987 140.861 82.7143 139.678 81.9232 140.453C81.7172 140.201 81.8191 139.905 82.116 139.526C81.1506 140.378 80.8602 139.352 79.9637 139.157C80.1907 138.79 80.4361 138.697 80.6888 138.734C80.9532 137.688 79.9652 138.702 80.1145 137.56C80.6126 137.394 80.9884 136.712 81.2227 137.263C81.0648 135.401 78.5925 135.202 77.7087 135.133C78.1438 134.896 78.0612 133.573 77.6872 134.798C77.5591 134.458 77.8691 133.645 77.6038 133.454C77.8879 132.7 78.3517 133.226 78.2865 132.359C77.8835 132.139 77.8457 133.623 77.2199 133.33C77.2497 133.834 77.6301 133.963 77.1978 134.967C77.019 134.788 76.8724 135.119 76.727 135.474C76.4511 134.7 77.6808 134.442 77.1349 133.959C76.5933 134.757 75.4449 134.712 74.9173 134.556C75.8608 135.942 77.3119 135.083 78.1756 136.601C77.4359 138.304 76.9608 137.139 76.7908 136.481C76.4359 136.445 76.7822 137.044 76.3634 137.659C76.2871 137.427 75.4571 137.273 75.3412 137.326C75.1371 136.487 76.0455 136.776 76.28 136.315C76.0335 136.158 75.2109 134.873 74.318 136.993C74.3566 136.355 74.5576 135.541 74.2136 135.314C74.1748 135.595 74.1338 135.878 74.2551 135.987C73.6432 136.396 74.3249 134.519 74.8963 134.22C73.6874 132.848 70.557 132.166 68.0586 131.011C66.8416 130.45 65.3423 130.07 64.4369 129.178C63.8718 128.62 61.4783 128.059 60.0905 127.766C59.9504 127.619 60.2525 126.993 60.3897 126.547C58.9471 127.951 58.2883 125.8 56.3409 125.889C56.2096 125.793 56.4284 125.318 56.5341 124.966C56.3392 124.748 55.6553 125.693 56.1296 124.505C54.2406 125.899 52.961 123.953 51.6973 123.724C51.5199 123.69 51.1956 124.213 51.2284 124.229C50.9679 124.1 50.979 123.071 50.5259 123.014C49.9939 122.946 49.8373 122.764 49.3544 122.303C48.9187 121.889 47.991 121.159 47.7784 121.134C47.6113 121.114 47.4221 121.793 47.1812 121.599C46.9879 121.441 47.225 120.885 47.1298 120.647C47.0596 120.772 46.0078 120.517 45.4988 120.722C46.05 119.594 43.508 120.058 42.6445 119.137C42.9335 118.561 43.2377 118.685 43.1989 118.001C42.3187 118.2 41.7689 119.702 41.5589 117.797C40.5322 118.823 40.4262 118.032 39.4282 117.763C39.6415 117.179 39.912 117.502 40.1104 116.668C39.5337 117.718 39.5251 116.221 38.8963 117.26C38.7992 117.17 38.8863 116.89 38.9899 116.752C37.8695 117.611 36.6638 116.475 35.9341 115.97C36.372 115.216 36.2389 114.89 36.6173 114.875C36.3969 114.372 35.6246 113.79 36.3633 112.82C36.05 113.099 35.9172 113.056 35.8523 112.652C35.6845 113.007 35.7092 113.157 35.7908 113.245C34.5023 112.23 32.5659 111.076 31.8051 110.022C31.4765 110.757 31.6218 110.153 30.9527 110.402C31.1464 110.174 31.331 109.783 31.508 109.266C31.1733 109.262 30.9263 110.636 30.5693 110.277C31.2079 108.191 29.1815 110.098 29.484 108.938C29.3163 108.937 29.181 109.44 29.0357 109.779C28.6778 109.113 28.4142 109.256 27.5012 109.281C28.9893 108.357 27.5395 108.573 26.9684 108.78C27.1346 108.105 27.3651 108.44 27.5451 107.979C27.5358 107.374 27.098 106.887 26.6707 108.025C26.5883 106.4 25.8472 106.187 25.2251 104.921C26.2413 103.93 27.3511 104.086 28.8275 104.447C29.0643 104.379 28.9131 104.054 29.1477 103.563C31.2189 103.481 32.7158 104.978 34.8164 104.088C32.4537 101.257 28.5148 101.451 25.8913 99.5416C27.0264 99.0221 27.4726 98.9638 28.7471 99.1533C28.9425 98.286 28.0881 98.5492 28.045 97.9386C28.3905 97.4515 28.7955 97.9236 29.1533 97.6402C27.7529 96.0783 25.8281 96.0634 23.5934 94.8473C23.858 93.7356 24.2659 94.9134 24.5118 93.4995C28.3968 95.2593 32.6079 93.2872 34.1842 95.984C33.8483 96.6166 33.4259 95.8651 33.0556 95.9447C33.6576 97.5804 35.2817 97.723 36.5697 98.0748C40.1708 99.0565 43.7885 99.9594 47.2659 100.89C47.3655 100.602 47.1924 100.609 47.1161 100.512C51.1849 100.439 56.8345 102.228 60.0279 104.704C60.2613 104.429 60.5328 104.767 60.7311 103.946C61.2564 105.758 62.7644 105.121 64.0758 105.363C67.4312 105.978 70.4265 108.922 73.5784 109.106C72.6904 110.428 73.9255 109.339 74.4728 109.397C76.6615 109.629 79.4851 111.766 81.9291 112.476C81.6913 110.415 78.7894 111.361 77.9678 109.215C78.1661 108.386 78.4937 109.622 78.6924 108.792C77.4811 105.96 74.54 107.884 73.3268 105.075C73.043 105.312 73.2048 105.577 72.7496 105.875C69.1701 105.42 64.4665 102.75 60.5433 100.923C60.0785 100.706 59.3966 101.44 58.8152 101.35C53.9281 100.596 50.9952 96.2236 46.4386 95.6848C48.9859 95.5369 50.4109 96.9771 53.5559 97.3381C53.7235 97.3391 53.8585 96.8351 54.0039 96.495C55.6337 97.0505 55.8653 98.1378 57.1353 98.4997C63.2685 100.255 70.0899 103.343 77.3766 103.758C77.9406 103.68 77.7576 102.732 78.1666 102.368C78.9863 104.123 81.0101 102.857 81.3605 105.381C81.8017 105.229 81.3482 104.583 81.2976 104.373C82.8417 103.847 83.2041 107.49 85.2165 106.961C85.4122 105.974 84.7111 105.953 84.7277 105.157C84.7637 104.903 85.5635 105.316 85.5157 105.743C86.3814 104.358 88.2528 105.967 89.2019 106.611C89.9206 105.25 91.4842 107.699 92.5691 106.388C89.3659 104.571 84.6469 104.253 81.6202 101.514C81.3906 102.001 81.5178 102.104 81.6612 102.187C81.1469 102.507 80.7657 102.233 80.981 101.307C80.4933 101.093 80.8574 101.773 80.4052 102.107C80.1307 101.707 80.089 101.515 79.9789 101.311C78.5309 101.777 77.654 100.288 76.7411 99.601C74.6109 98.421 77.3694 100.205 78.0638 98.714C75.7799 97.0243 72.028 96.9237 70.0747 95.1327C70.5479 93.6153 70.5293 95.2737 70.8848 94.0802C70.1098 93.2241 69.0303 93.4566 68.308 92.9124C68.1307 93.941 69.192 93.635 68.6895 95.0134C67.6279 94.8695 66.6195 94.0214 65.878 94.0982C66.6749 91.9742 64.8117 92.102 64.2153 93.5597C63.5781 93.827 64.2633 92.6696 63.7903 92.7626C63.6032 92.7822 63.4483 93.3053 63.5761 93.3514C61.7415 93.1306 57.49 92.059 55.7786 90.8188C55.6772 90.5694 55.7693 90.1107 55.9504 89.557C55.485 89.6862 55.6823 90.5309 55.4156 91.0292C54.5281 90.0408 53.3298 90.7721 53.0727 89.6113C53.3775 88.4575 53.8132 89.4326 54.1817 89.3119C54.1709 88.6367 53.74 89.0754 54.3535 88.0515C51.2412 87.356 50.4846 87.0804 47.8339 85.9339C50.1938 84.5773 51.661 87.2362 53.7369 86.2057C54.5778 87.3885 55.7692 86.7103 56.6985 87.4956C57.0534 87.5329 56.7071 86.9321 57.1259 86.3177C57.6475 86.1202 57.4249 86.3856 57.8929 86.5679C58.2681 85.805 57.8347 85.9127 57.8296 85.5598C58.2146 84.8312 58.1853 86.3089 58.7035 85.5142C58.4797 84.086 56.895 86.4045 56.1682 85.0205C56.2742 84.4333 55.8606 84.6918 56.3605 84.0963C55.7089 83.9614 55.581 83.2608 54.8055 83.2609C54.2451 83.0861 54.9681 82.7463 55.1689 83.0493C56.4291 83.2362 58.2817 82.6617 58.6191 84.1712C59.4963 83.3985 59.237 84.6737 59.877 84.2501C59.8446 84.7561 59.5565 85.5137 59.0865 85.6398C60.8289 87.592 63.6114 87.4396 65.8832 88.1751C65.76 86.049 63.4206 87.6458 62.966 85.5817C64.1201 85.2642 64.9308 85.9178 65.8852 86.2014C65.3023 87.1057 66.4595 87.3394 66.9498 87.2055C67.1857 87.14 67.0363 86.8115 67.27 86.3219C67.9276 87.087 68.7471 86.5714 69.8266 87.1522C69.813 87.5858 69.5507 88.2876 69.7827 88.4559C70.227 86.4084 70.0923 89.2491 70.9122 88.4927C69.3145 90.4932 69.6455 87.0055 68.377 87.9976C69.3885 89.6504 70.3819 91.0653 72.1671 90.5464C72.4324 89.783 71.733 90.0579 72.3193 88.9487C73.2749 89.2621 73.5975 89.8289 74.6199 89.6964C74.4352 90.0831 74.2107 89.8368 74.0008 89.8256C74.5239 91.8859 76.4524 92.4577 78.0899 93.1274C78.515 92.6866 78.3881 92.205 78.2613 91.8668C78.59 91.102 79.0099 91.8122 79.3489 91.2322C80.6954 95.0076 85.3071 92.9171 86.463 96.8334C86.6262 96.2646 87.0572 96.4596 87.5078 95.5283C88.5217 95.7686 89.0862 96.8988 90.406 95.8116C90.8501 97.4917 93.6094 95.9228 93.2583 99.3709C95.264 97.4538 96.2958 98.1506 98.139 99.3089C97.956 99.7241 97.7191 99.2894 97.5413 99.7747C97.9622 100.456 98.8696 100.614 99.5008 101.07C99.6449 100.137 98.805 100.265 98.3083 100.023C98.9455 98.5294 99.0335 99.9797 99.8004 99.8483C99.5835 102.904 102.148 102.215 103.591 102.397C103.635 101.813 103.009 101.95 102.91 101.519C104.49 100.718 105.17 102.786 106.469 102.344C106.326 102.738 106.184 103.13 106.042 103.522C108.27 105.019 110.26 104.999 112.902 105.093C113.251 105.021 112.914 104.583 113.351 104.25C116.271 105.05 119.271 106.751 122.492 106.232C122.463 105.919 121.173 106.178 121.769 104.681C122.108 105.297 123.375 105.595 123.535 106.901C126.682 107.523 130.45 107.728 133.785 108.585C136.544 109.291 139.533 109.291 142.265 110.022C147.655 111.463 151.776 113.809 156.39 115.596C157.733 116.116 158.866 116.884 159.477 118.903C158.18 121.477 157.265 120.505 155.724 120.976C155.867 121.598 155.706 122.549 156.212 122.781C156.11 122.949 155.483 123.809 155.785 123.959C154.358 126.583 153.076 125.078 151.819 126.618C152.104 128.184 153.698 126.979 154.908 127.951C155.006 126.949 154.514 126.582 153.928 126.317C155.405 125.571 157.064 126.927 157.955 128.611C156.981 129.763 156.942 128.217 155.717 128.871C155.508 130.34 154.663 130.497 154.392 131.733C154.539 132.292 155.065 132.444 155.457 132.737C155.017 133.046 154.635 134.28 154.177 134.296C153.777 135.324 154.019 135.662 154.047 136.229C154.246 136.452 154.949 135.013 154.709 134.799C155.414 133.675 155.652 136.141 156.201 134.624C156.003 135.965 155.124 135.673 154.665 136.101C154.625 136.982 155.107 137.297 155.281 137.947C154.683 138.638 154.256 137.627 153.875 137.49C153.639 137.557 153.788 137.884 153.555 138.373C154.182 139.183 155.56 140.061 156.174 140.211C155.722 141.521 155.864 139.954 155.449 140.635C155.77 141.993 154.948 144.361 154.1 147.109C153.192 147.411 152.895 147.761 152.097 147.115C151.857 147.334 151.866 147.777 151.414 148.211C151.201 149.57 152.342 150.038 152.904 150.011C152.104 151.195 152.549 152.366 152.837 152.952C152.523 153.923 152.131 153.672 151.792 154.258C151.037 157.78 149.021 157.828 147.737 159.523C145.049 159.365 142.974 156.911 140.302 156.78C139.458 156.737 138.399 157.298 137.574 157.21C135.695 157.013 133.972 156.186 132.098 155.761C126.416 154.47 121.346 152.198 115.287 151.288C113.369 151 110.945 150.865 108.83 150.179C105.303 149.033 101.371 148.652 98.9457 146.309C98.7057 146.528 98.718 147.031 98.2412 147.069C97.9296 145.5 95.5479 147.883 95.8563 144.977Z" fill="#a2cbcf" fill-opacity="0.3"/>
  <path fill-rule="evenodd" clip-rule="evenodd" d="M187.076 132.468C186.637 133.129 186.89 131.809 186.457 132.588C186.769 133.322 186.474 134.695 187.086 135.114C186.999 134.375 187.288 134.342 187.509 133.605C187.061 134.615 186.573 133.162 187.076 132.468ZM171.253 131.423C170.988 131.412 171.144 131.93 170.905 131.966C169.027 131.382 167.223 129.641 164.81 130.241C163.59 128.694 161.622 128.8 160.081 128.315C158.965 127.964 157.962 126.684 156.438 128.077C158.55 129.032 160.983 129.322 162.569 130.476C164.955 130.53 167.577 131.921 170.702 132.889C170.811 133.129 170.297 134.024 170.517 134.148C170.82 133.564 171.136 133.231 171.466 133.148C175.642 134.974 179.231 136.171 181.943 137.344C182.05 137.602 181.663 139.269 182.249 138.438C182.168 138.314 181.99 137.456 182.325 137.473C183.76 138.654 188.955 139.196 190.417 141.525C190.297 141.414 190.341 141.132 190.383 140.851C192.5 141.812 194.851 141.451 196.131 143.121C194.547 141.229 192.829 138.893 190.332 139.843C190.441 139.549 190.552 139.256 190.662 138.964C189.541 140.163 189.147 137.511 188.59 137.603C186.274 139.8 186.285 136.49 184.387 136.186C183.468 137.702 182.214 136.353 181.858 135.662C178.672 134.767 174.688 133.559 171.253 131.423ZM197.301 141.533C197.667 142.043 197.048 142.313 196.734 142.663C196.787 143.423 197.502 143.455 198.134 143.136C197.245 143.416 198.168 141.407 197.828 142.042C197.616 141.976 197.45 142.831 197.242 142.836C197.424 142.322 197.614 141.934 197.811 141.706C197.369 142.011 197.616 140.789 197.301 141.533ZM198.668 141.334C198.293 144.25 200.93 143.167 201.734 145.013C202.04 144.463 202.368 144.345 202.701 144.348C203.211 144.695 204.312 145.91 205.104 144.828C204.642 144.723 204.831 143.934 204.543 143.649C204.079 144.46 202.912 144.256 202.795 143.717C203.27 142.573 203.107 144.068 203.524 143.304C202.561 143.116 199.965 143.51 198.668 141.334ZM205.249 145.208C206.003 145.153 206.407 146.842 207.269 145.558C206.583 145.815 205.803 144.354 205.249 145.208ZM193.711 142.305C193.36 142.21 192.846 142.769 192.888 143.349C193.191 143.551 193.459 143.085 193.711 142.305ZM197.056 144.096C196.87 144.525 196.695 145.193 196.488 145.226C196.041 144.811 194.867 144.272 194.341 144.829C198.308 147.138 202.824 148.56 205.251 150.164C205.128 150.195 204.997 150.087 204.886 150.372C205.244 150.841 205.529 149.892 205.854 149.706C206.958 151.117 209.11 151.116 210.095 152.185C210.051 152.454 210.236 152.482 210.379 152.554C210.304 152.412 210.199 152.299 210.095 152.185C210.109 152.099 210.146 151.987 210.218 151.839C211.441 152.595 212.023 151.666 212.29 153.2C212.692 152.098 213.219 153.428 213.621 152.328C209.363 149.815 202.294 148.067 197.889 145.697C197.958 144.832 198.663 145.32 198.347 144.86C197.925 145.531 198.091 144.098 197.6 144.939C197.867 146.52 197.123 145.071 197.056 144.096ZM228.853 156.475C229.143 155.466 228.469 155.8 228.088 156.217C228.475 156.46 228.334 157.257 229.014 157.191C229.254 156.703 229.107 156.375 229.344 156.311C229.862 156.238 229.059 157.557 229.651 157.405C229.832 156.874 230.035 156.762 230.254 156.946C230.792 155.3 229.555 155.118 228.853 156.475ZM233.183 157.936C232.958 157.082 231.761 156.551 230.983 156.533C231.065 159.282 233.31 157.059 233.506 159.366C233.696 159.016 233.895 158.822 234.108 158.91C234.707 157.249 233.753 157.524 233.183 157.936ZM227.699 158.4C228.227 158.197 227.835 158.964 227.989 159.156C228.209 158.575 228.475 158.901 228.683 158.07C228.262 157.756 228.243 157.504 227.699 158.4ZM216.331 153.902C219.234 154.935 221.505 156.949 224.608 156.694C222.143 155.681 219.742 154.256 216.331 153.902ZM213.026 150.474C213.098 150.517 213.161 150.57 213.044 150.811C212.831 150.72 212.633 150.926 212.441 151.268C212.838 151.689 213.177 150.963 213.535 150.647C213.193 150.846 213.44 149.625 213.026 150.474ZM215.092 154.144C215.466 153.302 215.926 154.163 216.313 153.565C216.086 153.391 216.195 152.864 216.135 152.513C214.825 153.626 215.021 151.621 213.639 152.663C213.813 153.794 215.965 152.779 215.092 154.144ZM199.768 150.625C199.94 150.819 199.599 150.994 199.437 151.505C200.209 150.905 199.369 152.578 200.091 152.056C199.888 151.803 199.993 151.508 200.295 151.133C200.155 151.019 199.991 150.072 199.768 150.625ZM223.643 162.317C223.369 162.663 223.113 163.366 222.821 163.36C223.317 161.904 221.862 162.149 221.819 163.353C222.376 162.485 223.454 164.789 225.13 164.47C225.254 162.47 224.329 163.001 223.643 162.317ZM230.479 166.275C230.929 166.257 231.359 167.804 231.752 166.705C231.668 166.338 231.029 165.01 230.479 166.275ZM233.553 167.642C233.57 168.213 234.109 168.132 234.427 167.608C234.187 167.295 234.012 167.142 233.553 167.642ZM234.445 167.942C234.49 168.667 235.461 169.344 236.117 168.838C235.462 168.403 235.161 167.453 234.445 167.942ZM159.283 144.564C159.967 145.325 160.57 145.802 161.321 145.252C161.117 144.635 159.853 144.207 159.283 144.564ZM161.703 145.38C161.917 145.526 162.262 146.422 162.721 145.724C162.705 145.371 162.04 144.811 161.703 145.38ZM150.767 142.022C150.141 141.345 149.018 141.559 148.237 141.498C148.894 141.938 149.511 142.371 150.767 142.022ZM155.352 143.569C156.569 143.901 157.91 144.835 159.138 144.186C157.39 143.955 156.808 142.882 155.352 143.569ZM212.013 160.045C211.804 159.894 211.22 158.705 210.757 159.949C211.447 159.882 211.418 160.948 212.013 160.045ZM221.454 163.56C221.845 162.668 221.289 162.159 220.928 163.052C220.951 163.784 221.436 162.933 221.454 163.56ZM230.572 165.644C229.017 166.043 228.18 163.836 226.404 164.9C227.908 165.155 228.661 166.961 230.572 165.644ZM217.617 161.934C218.84 162.035 219.714 163.976 221.021 162.421C219.755 162.552 218.922 160.079 217.617 161.934ZM187.131 155.613C187.433 156.299 188.328 156.36 188.346 157.345C187.487 156.694 185.615 155.582 184.797 156.478C187.014 157.713 189.337 157.741 191.216 159.634C191.159 159.871 191.003 160.214 191.124 160.263C191.27 159.873 191.418 159.481 191.564 159.09C191.783 159.665 192.91 160.222 193.457 159.4C192.744 157.775 191.014 157.146 189.823 156.851C189.815 157.02 190.279 157.494 189.857 157.524C189.228 156.709 188.058 155.525 187.131 155.613ZM196.098 159.629C195.568 160.084 195.742 159.005 195.223 159.664C195.383 159.811 195.285 161.106 195.64 160.464C195.564 160.368 195.583 160.17 195.732 159.837C195.903 159.919 196.244 159.936 196.098 159.629ZM196.352 159.715C196.205 160.106 196.058 160.497 195.911 160.888C198.072 162.509 199.681 162.431 202.185 163.667C200.842 160.384 198.101 162.333 196.352 159.715ZM202.695 163.838C203.043 164.524 205.444 163.997 204.64 165.154C204.619 165.515 206.048 164.589 205.99 164.618C205.113 164.13 203.471 162.826 202.695 163.838ZM206.753 164.877C206.607 165.281 206.451 165.499 206.295 165.714C206.475 165.994 206.46 166.908 206.932 165.928C206.705 165.754 206.813 165.226 206.753 164.877ZM184.28 158.616C184.806 159.421 186.146 159.367 186.022 160.855C185.809 160.764 185.611 160.972 185.42 161.311C186.295 160.463 185.252 162.656 185.946 161.82C186.319 160.951 187.986 162.422 188.441 161.672C187.742 159.768 186.125 158.124 184.28 158.616ZM179.526 158.664C180.163 160.959 180.597 158.303 182.219 159.902C182.202 158.548 180.093 158.776 181.446 156.997C180.242 158.42 178.799 155.088 177.515 156.001C177.56 156.661 178.201 156.694 177.854 157.768C177.847 157.383 177.308 157.464 176.98 157.805C177.957 157.896 178.576 159.493 179.526 158.664ZM176.963 157.468C176.633 157.553 176.263 156.823 175.961 157.461C176.362 157.758 176.447 158.266 176.963 157.468ZM125.677 145.781C123.789 145.602 123.837 144.721 122.146 145.249C122.791 145.922 124.535 147.339 125.677 145.781ZM115.813 143.773C116.215 143.999 116.93 143.894 116.976 144.496C117.071 143.332 116.438 143.018 115.813 143.773ZM174.175 164.125C175.482 164.321 175.798 166.001 176.704 164.649C176.083 165.143 174.927 162.915 174.175 164.125ZM185.976 169.759C185.866 170.052 185.755 170.347 185.645 170.639C185.764 171.054 186.707 170.857 186.588 171.949C187.4 170.163 188.135 172.544 189.228 172.178C188.957 170.205 186.99 170.952 185.976 169.759ZM189.958 171.765C190.233 174.047 192.457 172.537 192.625 174.978C190.45 174.465 188.912 172.592 186.113 172.449C186.236 172.793 186.711 172.765 186.657 173.293C185.374 173.618 185.207 172.548 184.933 171.39C184.724 172.209 184.456 171.868 184.22 172.141C184.116 171.346 183.868 170.14 183.039 171.081C186.56 175.631 195.107 178.36 199.113 179.478C196.784 177.662 194.652 178.126 193.059 176.114C194.384 175.04 194.712 178.24 196.463 176.602C195.631 176.671 194.862 175.367 194.137 175.155C193.906 176.026 192.876 174.54 193.924 173.433C192.703 173.015 190.89 172.491 189.958 171.765ZM197.626 177.325C198.805 178.537 199.714 178.337 200.937 178.443C199.697 177.481 198.852 176.271 197.626 177.325ZM208.74 181.736C209.074 181.738 209.402 181.62 209.707 181.072C209.324 180.876 208.806 179.906 208.179 180.556C208.275 181.198 209.08 181.094 208.978 181.485C208.895 181.476 208.811 181.478 208.74 181.736ZM210.582 181.035C209.955 182.543 209.988 181.027 209.724 181.407C209.895 181.551 209.571 182.08 209.394 182.287C210.593 181.882 210.479 183.262 211.872 181.801C212.072 182.478 213.127 182.251 212.833 183.447C213.264 182.935 212.961 183.07 213.273 182.275C212.511 182.251 212.355 181.587 211.966 181.172C211.416 182.742 210.912 181.271 210.582 181.035ZM214.181 182.912C215.136 182.882 214.93 184.208 215.618 184.056C215.312 183.551 215.733 182.282 215.26 181.952C215.035 183.615 214.873 181.901 214.181 182.912ZM181.452 171.868C180.62 169.324 178.139 169.433 176.528 168.553C176.792 168.735 176.526 169.435 176.215 169.771C177.989 170.753 179.678 171.936 181.452 171.868ZM205.25 179.568C205 179.558 204.904 178.23 204.851 179.101C204.923 179.145 204.985 179.197 204.868 179.439C204.382 179.418 204.198 179.082 203.96 178.801C203.529 179.854 204.944 179.878 205.25 179.568ZM203.428 185.56C203.469 186.406 204.055 185.391 204.43 185.568C204.369 185.73 204.409 185.934 204.557 185.611C204.466 184.68 204.024 185.108 203.428 185.56ZM176.565 127.599C177.217 126.88 176.84 127.28 177.388 126.555C180.537 128.49 182.468 129.085 185.479 130.607C185.366 130.837 185.242 130.855 185.132 131.15C185.541 131.097 186.657 130.254 186.549 131.961C186.749 131.786 186.943 131.491 187.135 131.165C187.266 131.263 187.041 131.737 186.932 132.088C187.055 132.067 187.169 131.837 187.296 131.881C187.767 131.708 186.996 131.468 187.627 131.002C188.433 131.543 187.822 132.718 189.028 131.474C189.575 131.864 189.646 133.048 190.446 132.282C190.649 132.536 190.544 132.831 190.242 133.206C191.217 132.366 191.496 133.395 192.39 133.6C192.159 133.965 191.913 134.054 191.66 134.015C191.384 135.058 192.384 134.055 192.221 135.195C191.721 135.355 191.338 136.033 191.11 135.48C191.247 137.343 193.716 137.57 194.599 137.65C194.162 137.881 194.229 139.205 194.617 137.985C194.741 138.327 194.422 139.135 194.685 139.33C194.392 140.08 193.935 139.549 193.99 140.416C194.391 140.642 194.445 139.158 195.068 139.458C195.044 138.953 194.665 138.82 195.108 137.822C195.285 138.003 195.435 137.673 195.585 137.32C195.852 138.096 194.619 138.341 195.16 138.83C195.71 138.038 196.858 138.096 197.384 138.258C196.456 136.862 194.996 137.704 194.149 136.176C194.908 134.482 195.37 135.653 195.533 136.312C195.887 136.352 195.548 135.749 195.973 135.139C196.047 135.372 196.875 135.535 196.992 135.483C197.186 136.324 196.281 136.025 196.041 136.484C196.286 136.644 197.094 137.938 198.011 135.828C197.965 136.466 197.755 137.277 198.096 137.508C198.138 137.228 198.183 136.945 198.062 136.835C198.679 136.433 197.976 138.302 197.401 138.594C198.594 139.98 201.717 140.697 204.202 141.881C205.412 142.456 206.907 142.853 207.803 143.755C208.361 144.32 210.748 144.908 212.133 145.217C212.271 145.365 211.962 145.987 211.82 146.432C213.278 145.045 213.912 147.203 215.861 147.136C215.991 147.233 215.767 147.706 215.657 148.057C215.849 148.277 216.544 147.34 216.056 148.523C217.961 147.151 219.218 149.111 220.479 149.354C220.656 149.39 220.987 148.871 220.954 148.854C221.213 148.986 221.19 150.015 221.643 150.077C222.174 150.151 222.328 150.335 222.806 150.801C223.237 151.22 224.156 151.961 224.368 151.988C224.535 152.01 224.732 151.334 224.971 151.53C225.162 151.691 224.919 152.243 225.011 152.483C225.083 152.358 226.132 152.626 226.643 152.427C226.079 153.548 228.626 153.112 229.479 154.043C229.184 154.616 228.881 154.489 228.912 155.173C229.794 154.984 230.361 153.489 230.549 155.396C231.588 154.381 231.685 155.174 232.68 155.455C232.46 156.036 232.193 155.709 231.985 156.541C232.574 155.498 232.565 156.995 233.206 155.963C233.302 156.055 233.212 156.333 233.106 156.47C234.237 155.624 235.429 156.773 236.153 157.287C235.707 158.035 235.836 158.363 235.458 158.374C235.672 158.879 236.438 159.47 235.688 160.432C236.005 160.157 236.137 160.201 236.197 160.606C236.369 160.252 236.346 160.102 236.265 160.014C237.542 161.043 239.465 162.219 240.214 163.282C240.551 162.55 240.399 163.153 241.071 162.911C240.875 163.137 240.686 163.526 240.503 164.04C240.837 164.049 241.1 162.677 241.453 163.041C240.791 165.119 242.838 163.235 242.523 164.392C242.69 164.395 242.832 163.893 242.981 163.556C243.331 164.226 243.596 164.086 244.509 164.071C243.011 164.978 244.463 164.779 245.036 164.578C244.863 165.251 244.636 164.914 244.451 165.373C244.453 165.978 244.885 166.47 245.326 165.337C245.389 166.963 246.128 167.184 246.736 168.457C245.708 169.436 244.6 169.268 243.128 168.89C242.891 168.956 243.038 169.282 242.798 169.77C240.726 169.829 239.246 168.315 237.136 169.181C239.466 172.038 243.407 171.889 246.008 173.828C244.867 174.335 244.421 174.388 243.148 174.184C242.943 175.049 243.8 174.796 243.836 175.407C243.485 175.89 243.086 175.413 242.725 175.693C244.107 177.27 246.032 177.307 248.253 178.549C247.975 179.657 247.581 178.475 247.319 179.886C243.454 178.082 239.221 180.006 237.675 177.291C238.019 176.663 238.432 177.419 238.804 177.344C238.22 175.701 236.598 175.54 235.314 175.174C231.724 174.151 228.117 173.207 224.65 172.237C224.548 172.524 224.721 172.519 224.796 172.616C220.727 172.643 215.098 170.79 211.933 168.277C211.696 168.55 211.428 168.209 211.221 169.027C210.716 167.21 209.201 167.83 207.893 167.572C204.544 166.92 201.583 163.942 198.433 163.722C199.336 162.411 198.089 163.485 197.542 163.421C195.356 163.164 192.557 160.995 190.121 160.257C190.336 162.321 193.248 161.407 194.045 163.563C193.838 164.389 193.524 163.15 193.316 163.977C194.495 166.823 197.458 164.933 198.639 167.756C198.925 167.522 198.767 167.255 199.225 166.962C202.799 167.458 207.472 170.181 211.374 172.053C211.837 172.275 212.527 171.549 213.107 171.645C217.985 172.455 220.868 176.86 225.418 177.451C222.87 177.57 221.461 176.114 218.32 175.717C218.153 175.714 218.012 176.216 217.863 176.555C216.24 175.981 216.02 174.891 214.755 174.515C208.642 172.689 201.856 169.524 194.574 169.026C194.009 169.098 194.182 170.048 193.769 170.407C192.969 168.643 190.931 169.886 190.609 167.358C190.166 167.505 190.612 168.157 190.661 168.367C189.111 168.875 188.79 165.228 186.771 165.734C186.565 166.719 187.265 166.748 187.24 167.543C187.201 167.797 186.406 167.375 186.458 166.949C185.577 168.323 183.724 166.693 182.782 166.039C182.048 167.391 180.512 164.925 179.413 166.224C182.595 168.077 187.31 168.449 190.305 171.221C190.541 170.737 190.415 170.633 190.272 170.549C190.79 170.235 191.168 170.513 190.942 171.436C191.428 171.656 191.071 170.972 191.527 170.642C191.797 171.046 191.837 171.238 191.944 171.443C193.398 170.994 194.258 172.493 195.163 173.19C197.279 174.394 194.541 172.579 193.83 174.062C196.094 175.778 199.845 175.921 201.778 177.734C201.287 179.246 201.325 177.588 200.956 178.777C201.721 179.642 202.803 179.422 203.519 179.974C203.708 178.948 202.643 179.242 203.161 177.869C204.221 178.025 205.22 178.885 205.962 178.816C205.141 180.931 207.006 180.825 207.619 179.374C208.259 179.114 207.561 180.263 208.035 180.176C208.222 180.158 208.383 179.637 208.255 179.589C210.087 179.831 214.326 180.951 216.024 182.21C216.122 182.461 216.025 182.919 215.837 183.47C216.304 183.346 216.117 182.499 216.389 182.004C217.265 183.003 218.472 182.285 218.716 183.449C218.398 184.599 217.973 183.619 217.603 183.735C217.606 184.411 218.042 183.977 217.417 184.994C220.521 185.725 221.275 186.009 223.912 187.186C221.537 188.515 220.1 185.84 218.013 186.846C217.185 185.654 215.986 186.319 215.066 185.523C214.712 185.482 215.051 186.086 214.625 186.696C214.101 186.887 214.327 186.625 213.861 186.437C213.477 187.196 213.912 187.093 213.913 187.446C213.52 188.17 213.566 186.693 213.039 187.481C213.246 188.912 214.857 186.612 215.568 188.004C215.455 188.59 215.872 188.336 215.365 188.926C216.015 189.068 216.135 189.77 216.911 189.779C217.469 189.96 216.742 190.292 216.545 189.986C215.287 189.785 213.428 190.339 213.108 188.825C212.222 189.588 212.495 188.316 211.851 188.732C211.889 188.227 212.186 187.472 212.657 187.351C210.937 185.38 208.153 185.5 205.89 184.739C205.989 186.866 208.346 185.296 208.777 187.365C207.619 187.67 206.816 187.007 205.865 186.713C206.458 185.815 205.304 185.568 204.812 185.696C204.575 185.759 204.721 186.089 204.482 186.576C203.833 185.804 203.008 186.31 201.935 185.717C201.953 185.284 202.224 184.585 201.994 184.414C201.526 186.456 201.693 183.617 200.865 184.364C202.485 182.382 202.114 185.866 203.394 184.888C202.401 183.224 201.424 181.798 199.633 182.296C199.359 183.057 200.062 182.79 199.463 183.892C198.511 183.568 198.195 182.997 197.171 183.118C197.36 182.734 197.582 182.983 197.791 182.996C197.292 180.93 195.37 180.336 193.74 179.648C193.31 180.084 193.431 180.567 193.554 180.907C193.217 181.668 192.805 180.953 192.46 181.529C191.156 177.738 186.521 179.776 185.41 175.847C185.24 176.414 184.811 176.214 184.35 177.14C183.339 176.888 182.787 175.752 181.455 176.824C181.03 175.139 178.253 176.676 178.644 173.232C176.616 175.126 175.593 174.418 173.763 173.239C173.95 172.826 174.182 173.263 174.366 172.78C173.953 172.094 173.047 171.926 172.421 171.463C172.266 172.393 173.108 172.275 173.601 172.522C172.947 174.009 172.876 172.558 172.107 172.68C172.359 169.628 169.787 170.287 168.346 170.088C168.296 170.672 168.923 170.543 169.017 170.975C167.428 171.758 166.772 169.682 165.468 170.109C165.615 169.716 165.762 169.327 165.908 168.936C163.697 167.414 161.708 167.411 159.066 167.287C158.716 167.355 159.049 167.796 158.608 168.125C155.697 167.292 152.717 165.557 149.49 166.039C149.516 166.352 150.808 166.108 150.196 167.598C149.864 166.978 148.6 166.666 148.455 165.358C145.315 164.7 141.55 164.452 138.225 163.558C135.474 162.82 132.485 162.786 129.761 162.024C124.389 160.522 120.294 158.129 115.701 156.289C114.364 155.754 113.239 154.974 112.652 152.948C113.978 150.388 114.881 151.371 116.428 150.918C116.292 150.294 116.464 149.345 115.96 149.107C116.065 148.941 116.701 148.088 116.401 147.934C117.857 145.327 119.123 146.846 120.397 145.321C120.13 143.751 118.522 144.938 117.323 143.952C117.214 144.953 117.702 145.326 118.285 145.598C116.799 146.327 115.156 144.952 114.284 143.258C115.271 142.117 115.292 143.664 116.525 143.023C116.751 141.556 117.598 141.409 117.882 140.176C117.741 139.616 117.218 139.458 116.829 139.16C117.272 138.856 117.668 137.627 118.127 137.616C118.538 136.592 118.3 136.252 118.278 135.684C118.082 135.459 117.363 136.89 117.6 137.107C116.882 138.223 116.672 135.755 116.106 137.265C116.32 135.927 117.195 136.228 117.659 135.805C117.709 134.925 117.23 134.604 117.064 133.953C117.67 133.269 118.085 134.284 118.465 134.426C118.702 134.362 118.556 134.033 118.795 133.546C118.177 132.729 116.809 131.836 116.197 131.678C116.664 130.374 116.504 131.939 116.927 131.263C116.621 129.902 117.47 127.543 118.35 124.805C119.261 124.514 119.561 124.166 120.352 124.821C120.594 124.605 120.591 124.162 121.048 123.734C121.276 122.377 120.141 121.896 119.578 121.917C120.392 120.742 119.96 119.566 119.678 118.977C120.004 118.01 120.393 118.264 120.739 117.683C121.534 114.169 123.55 114.145 124.853 112.464C127.539 112.652 129.586 115.13 132.256 115.292C133.1 115.344 134.165 114.795 134.989 114.893C136.866 115.111 138.579 115.957 140.448 116.404C146.116 117.76 151.159 120.089 157.207 121.067C159.122 121.377 161.545 121.54 163.651 122.251C167.165 123.436 171.092 123.862 173.491 126.232C173.733 126.017 173.727 125.513 174.204 125.48C174.498 127.053 176.906 124.697 176.565 127.599Z" fill="#a2cbcf" fill-opacity="0.3"/>
  <path fill-rule="evenodd" clip-rule="evenodd" d="M155.315 82.0045C154.876 82.6651 155.13 81.3458 154.696 82.1244C155.009 82.8586 154.713 84.2316 155.325 84.6502C155.238 83.9117 155.527 83.8788 155.748 83.1416C155.301 84.1512 154.813 82.698 155.315 82.0045ZM139.493 80.9593C139.227 80.9482 139.383 81.4667 139.144 81.5022C137.267 80.9185 135.463 79.1772 133.049 79.7775C131.829 78.23 129.862 78.3362 128.32 77.8509C127.204 77.5002 126.201 76.2207 124.678 77.6136C126.789 78.5683 129.223 78.8582 130.808 80.012C133.194 80.0668 135.817 81.4572 138.941 82.4254C139.05 82.6658 138.536 83.5606 138.756 83.6841C139.06 83.1003 139.376 82.7673 139.705 82.6841C143.882 84.5101 147.471 85.7072 150.182 86.8801C150.289 87.1381 149.902 88.8057 150.488 87.974C150.408 87.8507 150.229 86.9919 150.565 87.0091C151.999 88.19 157.194 88.7323 158.656 91.061C158.536 90.9505 158.58 90.668 158.622 90.3875C160.739 91.3488 163.091 90.9875 164.37 92.657C162.787 90.7656 161.068 88.4293 158.571 89.3792C158.681 89.0858 158.791 88.7925 158.901 88.5007C157.781 89.699 157.386 87.047 156.829 87.139C154.513 89.3361 154.525 86.026 152.626 85.7225C151.707 87.2386 150.454 85.8895 150.097 85.1985C146.911 84.3032 142.928 83.0958 139.493 80.9593ZM165.541 91.0697C165.907 91.5797 165.287 91.849 164.973 92.1994C165.026 92.9597 165.742 92.9916 166.374 92.6725C165.484 92.9526 166.407 90.9429 166.067 91.5784C165.855 91.5122 165.69 92.3674 165.482 92.3728C165.664 91.8582 165.853 91.4709 166.05 91.242C165.608 91.5475 165.855 90.325 165.541 91.0697ZM166.907 90.8708C166.532 93.7865 169.169 92.7031 169.973 94.5492C170.279 93.9996 170.607 93.881 170.94 93.8846C171.45 94.2318 172.551 95.4469 173.343 94.3642C172.882 94.2595 173.07 93.4706 172.782 93.1849C172.318 93.9966 171.151 93.7925 171.034 93.2539C171.509 92.1095 171.346 93.6045 171.763 92.8406C170.8 92.652 168.205 93.0466 166.907 90.8708ZM173.488 94.7443C174.242 94.689 174.646 96.3784 175.508 95.0947C174.822 95.3511 174.042 93.8905 173.488 94.7443ZM161.95 91.841C161.6 91.7467 161.086 92.3057 161.127 92.8853C161.43 93.087 161.698 92.6209 161.95 91.841ZM165.295 93.6324C165.109 94.0616 164.934 94.7296 164.727 94.7619C164.281 94.3469 163.106 93.8087 162.58 94.3656C166.547 96.6746 171.063 98.0968 173.49 99.7001C173.367 99.7311 173.236 99.6232 173.125 99.9079C173.483 100.377 173.769 99.4282 174.093 99.2423C175.197 100.653 177.349 100.653 178.334 101.721C178.29 101.991 178.475 102.019 178.618 102.09C178.543 101.948 178.439 101.835 178.334 101.721C178.348 101.636 178.385 101.524 178.458 101.376C179.68 102.131 180.263 101.203 180.53 102.736C180.931 101.635 181.459 102.965 181.86 101.865C177.603 99.3518 170.533 97.6034 166.128 95.2338C166.197 94.3681 166.903 94.8561 166.586 94.396C166.165 95.0673 166.33 93.6347 165.839 94.4752C166.106 96.056 165.362 94.6076 165.295 93.6324ZM197.092 106.011C197.383 105.003 196.708 105.336 196.327 105.753C196.715 105.996 196.573 106.793 197.253 106.728C197.493 106.239 197.346 105.912 197.583 105.848C198.102 105.774 197.298 107.093 197.89 106.942C198.071 106.41 198.274 106.298 198.493 106.483C199.031 104.837 197.794 104.655 197.092 106.011ZM201.422 107.472C201.197 106.618 200 106.088 199.223 106.07C199.304 108.818 201.549 106.595 201.745 108.903C201.936 108.552 202.135 108.359 202.347 108.446C202.946 106.786 201.992 107.061 201.422 107.472ZM195.938 107.936C196.466 107.734 196.075 108.501 196.228 108.692C196.448 108.112 196.715 108.438 196.923 107.606C196.501 107.293 196.482 107.041 195.938 107.936ZM184.571 103.438C187.473 104.471 189.744 106.486 192.848 106.23C190.382 105.218 187.981 103.792 184.571 103.438ZM181.265 100.011C181.337 100.054 181.4 100.106 181.283 100.348C181.07 100.256 180.872 100.462 180.68 100.804C181.077 101.225 181.416 100.5 181.775 100.183C181.432 100.383 181.679 99.1618 181.265 100.011ZM183.331 103.681C183.705 102.839 184.166 103.7 184.553 103.102C184.326 102.928 184.434 102.4 184.374 102.05C183.064 103.163 183.26 101.157 181.879 102.199C182.052 103.33 184.204 102.316 183.331 103.681ZM168.007 100.161C168.179 100.355 167.839 100.53 167.677 101.041C168.448 100.442 167.609 102.114 168.331 101.592C168.127 101.339 168.233 101.044 168.534 100.669C168.394 100.555 168.23 99.6082 168.007 100.161ZM191.883 111.853C191.609 112.199 191.353 112.902 191.061 112.896C191.556 111.441 190.101 111.685 190.058 112.89C190.616 112.022 191.693 114.325 193.369 114.006C193.493 112.007 192.568 112.538 191.883 111.853ZM198.718 115.812C199.168 115.793 199.598 117.341 199.991 116.241C199.907 115.875 199.268 114.547 198.718 115.812ZM201.792 117.179C201.81 117.749 202.348 117.668 202.666 117.144C202.426 116.831 202.251 116.678 201.792 117.179ZM202.684 117.478C202.729 118.203 203.7 118.88 204.356 118.375C203.702 117.94 203.4 116.989 202.684 117.478ZM127.522 94.1007C128.206 94.8617 128.809 95.3383 129.56 94.7879C129.356 94.171 128.092 93.7438 127.522 94.1007ZM129.942 94.9167C130.156 95.062 130.501 95.9583 130.96 95.2608C130.944 94.9078 130.279 94.347 129.942 94.9167ZM119.007 91.5584C118.38 90.881 117.257 91.0952 116.476 91.0341C117.133 91.4742 117.75 91.9072 119.007 91.5584ZM123.591 93.105C124.808 93.4373 126.149 94.371 127.377 93.7219C125.629 93.4915 125.047 92.4188 123.591 93.105ZM180.252 109.581C180.043 109.431 179.459 108.241 178.996 109.485C179.686 109.418 179.657 110.485 180.252 109.581ZM189.694 113.096C190.084 112.205 189.529 111.696 189.167 112.589C189.19 113.321 189.675 112.47 189.694 113.096ZM198.811 115.181C197.257 115.58 196.419 113.373 194.643 114.436C196.147 114.692 196.9 116.497 198.811 115.181ZM185.856 111.471C187.079 111.572 187.953 113.512 189.261 111.958C187.994 112.089 187.162 109.615 185.856 111.471ZM155.37 105.149C155.672 105.835 156.567 105.897 156.585 106.881C155.727 106.231 153.854 105.119 153.037 106.014C155.253 107.25 157.576 107.277 159.455 109.171C159.399 109.408 159.242 109.75 159.363 109.8C159.51 109.41 159.657 109.017 159.804 108.626C160.022 109.201 161.15 109.758 161.696 108.936C160.983 107.311 159.254 106.682 158.062 106.387C158.054 106.556 158.518 107.03 158.097 107.061C157.467 106.245 156.298 105.061 155.37 105.149ZM164.337 109.166C163.807 109.621 163.981 108.541 163.462 109.2C163.623 109.347 163.524 110.642 163.879 110.001C163.803 109.904 163.822 109.706 163.971 109.373C164.142 109.456 164.483 109.472 164.337 109.166ZM164.591 109.251C164.444 109.642 164.298 110.033 164.15 110.424C166.311 112.045 167.92 111.968 170.424 113.203C169.081 109.921 166.34 111.869 164.591 109.251ZM170.934 113.374C171.283 114.061 173.683 113.534 172.879 114.69C172.858 115.051 174.287 114.125 174.229 114.155C173.352 113.667 171.71 112.362 170.934 113.374ZM174.993 114.414C174.846 114.817 174.69 115.036 174.535 115.25C174.715 115.53 174.699 116.445 175.171 115.464C174.945 115.29 175.053 114.763 174.993 114.414ZM152.519 108.152C153.045 108.957 154.385 108.903 154.262 110.391C154.048 110.301 153.85 110.508 153.66 110.848C154.535 110 153.492 112.193 154.185 111.356C154.559 110.487 156.225 111.959 156.681 111.208C155.981 109.304 154.364 107.66 152.519 108.152ZM147.766 108.2C148.403 110.496 148.836 107.839 150.458 109.439C150.442 108.084 148.332 108.312 149.685 106.533C148.481 107.957 147.038 104.624 145.754 105.537C145.8 106.197 146.44 106.231 146.093 107.304C146.086 106.92 145.547 107 145.219 107.341C146.197 107.432 146.815 109.029 147.766 108.2ZM145.202 107.005C144.873 107.089 144.502 106.359 144.2 106.997C144.602 107.294 144.686 107.802 145.202 107.005ZM93.9165 95.3173C92.0286 95.138 92.0767 94.2573 90.3853 94.7857C91.0303 95.4588 92.7742 96.875 93.9165 95.3173ZM84.0519 93.3092C84.4542 93.5353 85.1696 93.43 85.2157 94.0323C85.3103 92.8688 84.6777 92.5542 84.0519 93.3092ZM142.414 113.662C143.721 113.857 144.037 115.538 144.943 114.186C144.322 114.679 143.166 112.452 142.414 113.662ZM154.215 119.296C154.105 119.589 153.994 119.883 153.885 120.175C154.003 120.59 154.947 120.394 154.827 121.486C155.64 119.699 156.374 122.081 157.468 121.714C157.196 119.741 155.229 120.488 154.215 119.296ZM158.197 121.301C158.473 123.583 160.696 122.073 160.864 124.514C158.689 124.002 157.151 122.128 154.352 121.986C154.475 122.329 154.95 122.301 154.896 122.83C153.614 123.155 153.446 122.085 153.172 120.926C152.963 121.745 152.696 121.405 152.46 121.677C152.355 120.882 152.107 119.676 151.279 120.618C154.8 125.167 163.347 127.896 167.352 129.015C165.023 127.199 162.891 127.663 161.298 125.65C162.623 124.576 162.951 127.776 164.702 126.138C163.87 126.207 163.102 124.903 162.376 124.691C162.145 125.562 161.116 124.076 162.163 122.969C160.942 122.551 159.13 122.027 158.197 121.301ZM165.866 126.861C167.044 128.074 167.953 127.874 169.176 127.979C167.936 127.017 167.092 125.807 165.866 126.861ZM176.98 131.273C177.314 131.274 177.641 131.157 177.947 130.608C177.563 130.412 177.046 129.442 176.418 130.092C176.514 130.734 177.319 130.63 177.217 131.021C177.134 131.012 177.05 131.015 176.98 131.273ZM178.821 130.571C178.194 132.08 178.227 130.564 177.964 130.944C178.134 131.087 177.811 131.616 177.633 131.823C178.832 131.419 178.718 132.799 180.112 131.338C180.311 132.014 181.366 131.788 181.072 132.984C181.503 132.471 181.2 132.607 181.512 131.812C180.75 131.787 180.595 131.123 180.205 130.708C179.655 132.278 179.151 130.807 178.821 130.571ZM182.421 132.448C183.375 132.418 183.17 133.744 183.857 133.592C183.551 133.087 183.972 131.818 183.499 131.488C183.274 133.151 183.112 131.437 182.421 132.448ZM149.692 121.404C148.86 118.861 146.379 118.969 144.767 118.09C145.032 118.271 144.766 118.971 144.454 119.307C146.228 120.289 147.917 121.473 149.692 121.404ZM173.49 129.104C173.24 129.095 173.143 127.767 173.09 128.637C173.162 128.682 173.224 128.733 173.108 128.975C172.622 128.955 172.437 128.618 172.199 128.338C171.769 129.39 173.184 129.414 173.49 129.104ZM171.668 135.096C171.709 135.943 172.294 134.928 172.67 135.104C172.608 135.267 172.648 135.471 172.797 135.147C172.706 134.216 172.263 134.644 171.668 135.096ZM144.804 77.1356C145.457 76.4159 145.079 76.8163 145.627 76.0912C148.776 78.0268 150.708 78.6215 153.719 80.1431C153.605 80.3735 153.481 80.3916 153.371 80.6862C153.78 80.6338 154.896 79.7904 154.788 81.4972C154.988 81.3222 155.182 81.0276 155.374 80.7016C155.506 80.7997 155.28 81.2737 155.171 81.6247C155.295 81.6038 155.408 81.3733 155.535 81.4179C156.007 81.2441 155.235 81.0048 155.866 80.5383C156.672 81.079 156.062 82.2539 157.267 81.0101C157.814 81.4008 157.885 82.5846 158.685 81.8182C158.888 82.0726 158.783 82.3677 158.482 82.7428C159.457 81.9025 159.735 82.9312 160.63 83.1367C160.398 83.5009 160.152 83.5907 159.9 83.5511C159.623 84.5944 160.623 83.5914 160.461 84.7317C159.961 84.8919 159.577 85.5694 159.349 85.0161C159.486 86.8796 161.956 87.1065 162.839 87.186C162.401 87.4176 162.468 88.7413 162.856 87.5214C162.981 87.8629 162.661 88.6716 162.924 88.8664C162.632 89.6167 162.174 89.0855 162.229 89.9528C162.63 90.1782 162.684 88.6944 163.307 88.9939C163.283 88.4896 162.904 88.3565 163.348 87.358C163.524 87.5392 163.675 87.2097 163.824 86.856C164.091 87.6328 162.859 87.8776 163.399 88.3665C163.95 87.5742 165.098 87.6325 165.623 87.7941C164.696 86.3983 163.235 87.2405 162.388 85.7123C163.147 84.0184 163.609 85.1889 163.772 85.8486C164.126 85.8884 163.787 85.2851 164.213 84.6756C164.286 84.9081 165.114 85.0714 165.231 85.0197C165.425 85.8609 164.52 85.5617 164.281 86.0205C164.525 86.1803 165.333 87.4742 166.25 85.3642C166.204 86.0024 165.994 86.8138 166.336 87.0443C166.378 86.764 166.422 86.4818 166.302 86.3713C166.918 85.9693 166.215 87.8386 165.64 88.1308C166.834 89.5169 169.956 90.2338 172.441 91.4176C173.652 91.9922 175.147 92.3895 176.042 93.2918C176.6 93.8563 178.987 94.4443 180.372 94.753C180.51 94.9013 180.201 95.5236 180.059 95.9682C181.517 94.581 182.152 96.7395 184.1 96.6721C184.23 96.7697 184.006 97.2428 183.896 97.5936C184.089 97.813 184.783 96.8761 184.295 98.059C186.2 96.6869 187.457 98.6472 188.718 98.8903C188.895 98.9262 189.226 98.4071 189.193 98.3904C189.452 98.5222 189.429 99.5511 189.882 99.6132C190.413 99.6874 190.567 99.8713 191.045 100.338C191.476 100.756 192.395 101.497 192.608 101.524C192.775 101.547 192.971 100.87 193.21 101.067C193.402 101.227 193.158 101.78 193.251 102.019C193.322 101.894 194.371 102.162 194.882 101.963C194.318 103.084 196.866 102.649 197.718 103.58C197.423 104.153 197.12 104.025 197.151 104.71C198.034 104.52 198.6 103.025 198.789 104.932C199.827 103.918 199.924 104.71 200.919 104.991C200.699 105.572 200.432 105.246 200.224 106.077C200.813 105.034 200.805 106.531 201.445 105.499C201.541 105.591 201.451 105.87 201.346 106.007C202.476 105.16 203.669 106.31 204.392 106.823C203.946 107.572 204.075 107.9 203.697 107.911C203.911 108.416 204.677 109.007 203.927 109.969C204.244 109.693 204.376 109.737 204.436 110.142C204.608 109.788 204.585 109.638 204.505 109.55C205.782 110.58 207.705 111.756 208.453 112.818C208.79 112.086 208.638 112.689 209.31 112.447C209.114 112.674 208.925 113.062 208.742 113.577C209.077 113.585 209.339 112.214 209.692 112.577C209.03 114.655 211.078 112.772 210.762 113.928C210.93 113.931 211.071 113.429 211.22 113.092C211.57 113.762 211.835 113.623 212.749 113.607C211.25 114.515 212.702 114.315 213.276 114.115C213.102 114.788 212.875 114.45 212.69 114.909C212.692 115.514 213.125 116.006 213.565 114.874C213.629 116.499 214.367 116.721 214.975 117.993C213.948 118.973 212.84 118.804 211.367 118.427C211.13 118.492 211.277 118.819 211.037 119.307C208.965 119.366 207.485 117.851 205.375 118.717C207.705 121.574 211.646 121.426 214.248 123.365C213.107 123.871 212.66 123.925 211.388 123.721C211.182 124.586 212.04 124.332 212.076 124.943C211.725 125.426 211.325 124.95 210.964 125.229C212.347 126.807 214.271 126.843 216.492 128.085C216.215 129.194 215.82 128.011 215.558 129.422C211.693 127.618 207.46 129.542 205.915 126.828C206.258 126.199 206.672 126.955 207.043 126.88C206.459 125.237 204.837 125.076 203.553 124.71C199.963 123.687 196.356 122.743 192.89 121.774C192.787 122.06 192.96 122.055 193.035 122.153C188.966 122.179 183.337 120.326 180.172 117.814C179.935 118.086 179.668 117.746 179.46 118.564C178.956 116.746 177.44 117.366 176.132 117.109C172.784 116.456 169.822 113.478 166.672 113.258C167.575 111.947 166.328 113.021 165.781 112.957C163.595 112.7 160.796 110.531 158.361 109.793C158.575 111.857 161.487 110.944 162.285 113.099C162.077 113.925 161.763 112.686 161.555 113.514C162.734 116.36 165.697 114.469 166.878 117.292C167.165 117.058 167.006 116.792 167.464 116.498C171.038 116.995 175.711 119.717 179.614 121.589C180.076 121.811 180.766 121.085 181.346 121.181C186.225 121.992 189.108 126.397 193.658 126.987C191.109 127.106 189.7 125.65 186.56 125.253C186.392 125.25 186.251 125.753 186.102 126.091C184.479 125.517 184.26 124.427 182.994 124.051C176.881 122.226 170.095 119.061 162.814 118.562C162.249 118.634 162.421 119.585 162.008 119.943C161.208 118.18 159.17 119.422 158.848 116.895C158.406 117.042 158.852 117.693 158.9 117.903C157.35 118.412 157.029 114.764 155.011 115.27C154.804 116.255 155.505 116.284 155.479 117.08C155.44 117.333 154.645 116.911 154.698 116.486C153.816 117.86 151.963 116.23 151.022 115.575C150.287 116.928 148.752 114.462 147.652 115.76C150.834 117.613 155.549 117.985 158.545 120.758C158.78 120.274 158.654 120.169 158.511 120.085C159.029 119.771 159.407 120.049 159.182 120.972C159.667 121.192 159.31 120.508 159.766 120.179C160.036 120.582 160.076 120.775 160.184 120.98C161.637 120.53 162.497 122.029 163.402 122.727C165.518 123.931 162.78 122.116 162.069 123.598C164.334 125.314 168.084 125.457 170.017 127.271C169.526 128.782 169.564 127.124 169.195 128.314C169.96 129.179 171.042 128.958 171.758 129.511C171.947 128.484 170.882 128.778 171.401 127.406C172.461 127.561 173.459 128.421 174.201 128.353C173.38 130.467 175.245 130.361 175.858 128.91C176.498 128.65 175.8 129.8 176.274 129.712C176.461 129.694 176.622 129.173 176.495 129.126C178.327 129.367 182.566 130.487 184.263 131.747C184.362 131.997 184.264 132.455 184.077 133.007C184.544 132.883 184.356 132.036 184.628 131.541C185.505 132.539 186.711 131.821 186.955 132.985C186.637 134.135 186.212 133.155 185.843 133.272C185.846 133.947 186.282 133.513 185.656 134.53C188.761 135.261 189.514 135.545 192.151 136.722C189.776 138.052 188.339 135.376 186.252 136.383C185.425 135.191 184.226 135.855 183.305 135.059C182.951 135.018 183.29 135.623 182.864 136.232C182.341 136.424 182.566 136.161 182.1 135.973C181.716 136.732 182.151 136.629 182.152 136.982C181.759 137.706 181.805 136.229 181.278 137.018C181.485 138.449 183.096 136.148 183.807 137.54C183.695 138.126 184.111 137.873 183.605 138.462C184.255 138.605 184.374 139.307 185.15 139.315C185.708 139.497 184.981 139.828 184.784 139.523C183.526 139.322 181.667 139.875 181.347 138.362C180.461 139.124 180.735 137.852 180.09 138.268C180.128 137.763 180.425 137.009 180.896 136.888C179.176 134.916 176.392 135.037 174.129 134.275C174.228 136.403 176.585 134.833 177.016 136.902C175.859 137.206 175.055 136.543 174.104 136.249C174.698 135.351 173.543 135.104 173.051 135.233C172.815 135.296 172.96 135.626 172.721 136.113C172.072 135.34 171.247 135.846 170.174 135.253C170.193 134.82 170.463 134.121 170.233 133.95C169.765 135.993 169.932 133.154 169.104 133.901C170.724 131.918 170.353 135.402 171.633 134.424C170.641 132.76 169.663 131.334 167.872 131.833C167.598 132.593 168.301 132.326 167.702 133.429C166.75 133.104 166.434 132.534 165.41 132.655C165.599 132.27 165.821 132.519 166.031 132.533C165.531 130.466 163.609 129.873 161.979 129.184C161.549 129.62 161.671 130.103 161.794 130.443C161.456 131.204 161.044 130.489 160.699 131.065C159.395 127.275 154.76 129.313 153.649 125.383C153.479 125.95 153.051 125.75 152.589 126.676C151.578 126.425 151.027 125.288 149.695 126.36C149.27 124.675 146.493 126.213 146.883 122.769C144.856 124.663 143.832 123.954 142.002 122.775C142.19 122.362 142.422 122.799 142.605 122.316C142.192 121.63 141.286 121.462 140.66 120.999C140.506 121.93 141.347 121.811 141.841 122.059C141.187 123.545 141.115 122.094 140.347 122.217C140.598 119.164 138.026 119.824 136.585 119.625C136.535 120.208 137.163 120.079 137.256 120.511C135.667 121.294 135.011 119.218 133.707 119.645C133.854 119.253 134.001 118.863 134.148 118.472C131.936 116.95 129.947 116.947 127.306 116.824C126.955 116.892 127.288 117.333 126.847 117.661C123.936 116.828 120.956 115.093 117.73 115.575C117.755 115.889 119.047 115.644 118.435 117.135C118.103 116.515 116.839 116.202 116.694 114.895C113.554 114.237 109.789 113.989 106.464 113.094C103.713 112.357 100.724 112.323 98.0005 111.561C92.6279 110.058 88.5337 107.665 83.9402 105.826C82.6033 105.291 81.4787 104.51 80.891 102.484C82.2175 99.9247 83.1206 100.907 84.6676 100.454C84.5312 99.83 84.7033 98.8809 84.1994 98.6437C84.3041 98.477 84.9404 97.6239 84.6402 97.4707C86.0967 94.8634 87.3619 96.3821 88.6362 94.857C88.3695 93.2874 86.7613 94.4743 85.5626 93.4888C85.4528 94.4899 85.9408 94.8622 86.524 95.134C85.0387 95.8634 83.3952 94.4886 82.5237 92.7941C83.5107 91.6536 83.5317 93.2 84.7642 92.5594C84.9903 91.0927 85.837 90.9457 86.1214 89.7125C85.9805 89.1521 85.4569 88.9941 85.0683 88.6964C85.5113 88.3926 85.9074 87.1633 86.3659 87.1523C86.7771 86.1287 86.5396 85.7884 86.5177 85.2206C86.321 84.9953 85.6023 86.4265 85.8393 86.6435C85.1217 87.759 84.9115 85.2909 84.3454 86.8017C84.5588 85.4629 85.434 85.7646 85.8981 85.3417C85.9484 84.4618 85.4696 84.1407 85.303 83.4892C85.9092 82.805 86.3243 83.8204 86.7039 83.9622C86.941 83.8982 86.7953 83.5695 87.0341 83.0824C86.416 82.2657 85.0484 81.3719 84.436 81.2147C84.9035 79.9108 84.7436 81.4756 85.1663 80.7991C84.86 79.4381 85.7094 77.0797 86.5888 74.3413C87.5002 74.0499 87.8005 73.7025 88.5912 74.3577C88.8337 74.1419 88.8303 73.6986 89.2872 73.2702C89.5154 71.9133 88.38 71.4319 87.8173 71.4533C88.6309 70.2782 88.1993 69.1025 87.9177 68.5131C88.2429 67.5459 88.6321 67.8005 88.9782 67.219C89.7729 63.7055 91.7895 63.6811 93.0922 62.0005C95.778 62.1888 97.825 64.6668 100.495 64.8282C101.339 64.88 102.404 64.3318 103.229 64.4292C105.105 64.6475 106.818 65.4937 108.688 65.94C114.355 67.2959 119.398 69.6258 125.447 70.6038C127.361 70.9135 129.784 71.0762 131.89 71.787C135.405 72.9722 139.332 73.3988 141.73 75.7687C141.973 75.5529 141.966 75.0497 142.443 75.0165C142.737 76.5895 145.146 74.2336 144.804 77.1356Z" fill="#a2cbcf" fill-opacity="0.3"/>
  <path fill-rule="evenodd" clip-rule="evenodd" d="M101.676 176.674C102.109 176.009 101.867 177.331 102.294 176.548C101.975 175.817 102.258 174.441 101.642 174.028C101.736 174.766 101.447 174.801 101.233 175.541C101.671 174.527 102.172 175.976 101.676 176.674ZM117.507 177.576C117.772 177.585 117.612 177.068 117.85 177.03C119.733 177.597 121.553 179.322 123.961 178.7C125.195 180.236 127.161 180.112 128.708 180.584C129.826 180.924 130.841 182.195 132.352 180.788C130.232 179.853 127.796 179.585 126.2 178.445C123.814 178.412 121.179 177.045 118.045 176.105C117.934 175.866 118.44 174.966 118.219 174.845C117.921 175.431 117.608 175.767 117.279 175.853C113.086 174.065 109.487 172.9 106.765 171.752C106.655 171.495 107.027 169.824 106.449 170.661C106.53 170.784 106.717 171.641 106.381 171.627C104.936 170.459 99.7363 169.963 98.2529 167.648C98.374 167.757 98.3327 168.04 98.2937 168.321C96.1677 167.379 93.8196 167.761 92.5254 166.103C94.1257 167.98 95.8654 170.301 98.3538 169.329C98.2467 169.623 98.1391 169.917 98.0315 170.21C99.141 169.002 99.5591 171.65 100.115 171.553C102.412 169.335 102.43 172.645 104.331 172.932C105.237 171.407 106.502 172.745 106.865 173.433C110.059 174.299 114.053 175.471 117.507 177.576ZM91.3691 167.701C90.9984 167.195 91.6155 166.92 91.9266 166.566C91.8665 165.807 91.1506 165.781 90.5215 166.106C91.4086 165.818 90.5036 167.836 90.838 167.197C91.0508 167.262 91.2084 166.405 91.4161 166.398C91.2388 166.914 91.0532 167.303 90.8577 167.534C91.297 167.224 91.0612 168.449 91.3691 167.701ZM90.0043 167.912C90.353 164.993 87.7255 166.101 86.905 164.262C86.6045 164.814 86.2776 164.936 85.9446 164.935C85.4314 164.593 84.3194 163.387 83.5373 164.477C83.9995 164.578 83.8179 165.368 84.1088 165.651C84.5654 164.836 85.734 165.029 85.8558 165.567C85.391 166.715 85.541 165.219 85.1306 165.987C86.0953 166.166 88.6873 165.748 90.0043 167.912ZM83.3889 164.098C82.6352 164.161 82.2162 162.475 81.3658 163.766C82.0495 163.504 82.8424 164.957 83.3889 164.098ZM94.9524 166.898C95.3038 166.989 95.8126 166.425 95.7659 165.846C95.4615 165.647 95.1974 166.115 94.9524 166.898ZM91.5914 165.136C91.7732 164.706 91.9428 164.036 92.1493 164.002C92.5994 164.413 93.7784 164.94 94.2998 164.379C90.3117 162.106 85.7832 160.724 83.3418 159.143C83.4645 159.111 83.5968 159.217 83.7048 158.932C83.3429 158.466 83.0658 159.417 82.7434 159.606C81.6266 158.206 79.4744 158.225 78.4801 157.166C78.5213 156.895 78.3362 156.869 78.1924 156.799C78.2687 156.94 78.3744 157.052 78.4801 157.166C78.4665 157.251 78.4307 157.363 78.3596 157.512C77.13 156.768 76.5561 157.701 76.2755 156.171C75.8839 157.276 75.3444 155.95 74.9524 157.054C79.2327 159.528 86.3176 161.213 90.7438 163.543C90.6825 164.409 89.9729 163.927 90.2933 164.384C90.709 163.709 90.5563 165.143 91.0396 164.299C90.7584 162.72 91.5158 164.162 91.5914 165.136ZM59.6841 153.045C59.4026 154.056 60.0737 153.716 60.451 153.296C60.0617 153.057 60.196 152.258 59.5165 152.33C59.2812 152.82 59.4308 153.147 59.1943 153.213C58.6765 153.291 59.4686 151.965 58.8778 152.122C58.7013 152.655 58.4993 152.769 58.279 152.586C57.756 154.237 58.9942 154.408 59.6841 153.045ZM55.3411 151.623C55.5738 152.475 56.7753 152.995 57.553 153.006C57.4468 150.258 55.2217 152.501 55.0054 150.196C54.8177 150.548 54.6205 150.743 54.407 150.657C53.8231 152.323 54.7746 152.04 55.3411 151.623ZM60.8207 151.11C60.2946 151.317 60.6788 150.546 60.524 150.356C60.3089 150.939 60.0395 150.615 59.8392 151.449C60.2637 151.758 60.2848 152.01 60.8207 151.11ZM72.2283 155.505C69.3163 154.498 67.0272 152.504 63.9263 152.788C66.4009 153.778 68.8145 155.182 72.2283 155.505ZM75.5643 158.902C75.4924 158.86 75.4287 158.808 75.5436 158.566C75.7572 158.655 75.9534 158.447 76.1419 158.104C75.7415 157.686 75.4093 158.415 75.0533 158.735C75.3938 158.532 75.1579 159.755 75.5643 158.902ZM73.4657 155.251C73.0991 156.097 72.6308 155.24 72.2493 155.841C72.4777 156.013 72.3738 156.542 72.4371 156.891C73.7372 155.767 73.5596 157.774 74.9313 156.72C74.7476 155.59 72.6049 156.624 73.4657 155.251ZM88.8209 158.632C88.6467 158.44 88.9857 158.262 89.1431 157.749C88.3768 158.356 89.2015 156.676 88.4843 157.204C88.6902 157.456 88.5871 157.752 88.2889 158.129C88.4297 158.242 88.6028 159.187 88.8209 158.632ZM64.8405 147.156C65.1115 146.808 65.3611 146.102 65.653 146.106C65.1707 147.566 66.6236 147.308 66.6557 146.103C66.106 146.976 65.0077 144.682 63.3345 145.016C63.229 147.017 64.1491 146.478 64.8405 147.156ZM57.9696 143.259C57.5201 143.282 57.0757 141.739 56.6927 142.841C56.7804 143.207 57.4308 144.529 57.9696 143.259ZM54.8833 141.92C54.8608 141.35 54.3232 141.436 54.0098 141.963C54.2528 142.274 54.4289 142.425 54.8833 141.92ZM53.9891 141.629C53.9369 140.904 52.9602 140.236 52.3088 140.748C52.9671 141.176 53.2771 142.125 53.9891 141.629ZM129.358 164.327C128.667 163.573 128.06 163.101 127.315 163.659C127.524 164.274 128.792 164.689 129.358 164.327ZM126.931 163.533C126.716 163.39 126.363 162.497 125.91 163.198C125.929 163.551 126.6 164.106 126.931 163.533ZM137.897 166.793C138.529 167.464 139.65 167.24 140.432 167.294C139.771 166.86 139.15 166.433 137.897 166.793ZM133.298 165.288C132.078 164.966 130.729 164.045 129.507 164.705C131.257 164.92 131.849 165.987 133.298 165.288ZM76.4909 149.323C76.7014 149.472 77.2963 150.656 77.7476 149.408C77.0582 149.481 77.0782 148.414 76.4909 149.323ZM67.0183 145.893C66.6356 146.788 67.196 147.292 67.5494 146.396C67.5197 145.664 67.0422 146.52 67.0183 145.893ZM57.8822 143.891C59.4332 143.478 60.2905 145.678 62.0567 144.598C60.5507 144.356 59.7814 142.558 57.8822 143.891ZM70.8705 147.484C69.6467 147.394 68.7546 145.462 67.4615 147.028C68.7268 146.886 69.5815 149.352 70.8705 147.484ZM101.412 153.53C101.104 152.848 100.208 152.794 100.182 151.81C101.046 152.452 102.928 153.547 103.738 152.645C101.51 151.429 99.1871 151.422 97.2907 149.546C97.3452 149.309 97.499 148.965 97.3772 148.916C97.2344 149.307 97.0907 149.701 96.9474 150.093C96.724 149.521 95.5911 148.974 95.0524 149.801C95.78 151.42 97.515 152.033 98.7093 152.317C98.7157 152.148 98.2474 151.678 98.6685 151.644C99.3056 152.453 100.485 153.627 101.412 153.53ZM92.4094 149.595C92.9352 149.135 92.7704 150.216 93.2839 149.553C93.122 149.407 93.2087 148.112 92.8598 148.756C92.9368 148.852 92.919 149.05 92.7734 149.384C92.6017 149.303 92.2607 149.29 92.4094 149.595ZM92.1544 149.512C92.2977 149.12 92.4409 148.727 92.5846 148.335C90.4096 146.734 88.8009 146.826 86.2861 145.613C87.6586 148.883 90.3816 146.91 92.1544 149.512ZM85.7747 145.446C85.4199 144.763 83.0241 145.311 83.8179 144.148C83.8352 143.787 82.415 144.725 82.4728 144.695C83.3538 145.176 85.0074 146.465 85.7747 145.446ZM81.7069 144.444C81.8498 144.039 82.0033 143.819 82.1573 143.603C81.9746 143.324 81.982 142.41 81.5186 143.395C81.747 143.567 81.6435 144.095 81.7069 144.444ZM104.236 150.502C103.702 149.702 102.363 149.768 102.473 148.279C102.688 148.367 102.884 148.158 103.071 147.817C102.204 148.673 103.227 146.47 102.541 147.313C102.175 148.185 100.496 146.729 100.047 147.484C100.764 149.381 102.395 151.01 104.236 150.502ZM108.989 150.411C108.331 148.122 107.921 150.782 106.286 149.197C106.314 150.551 108.421 150.304 107.085 152.095C108.276 150.661 109.748 153.98 111.024 153.056C110.973 152.397 110.332 152.369 110.669 151.292C110.68 151.677 111.218 151.591 111.543 151.247C110.565 151.165 109.932 149.574 108.989 150.411ZM111.563 151.583C111.892 151.496 112.269 152.222 112.565 151.582C112.161 151.289 112.072 150.782 111.563 151.583ZM162.952 162.808C164.841 162.97 164.801 163.851 166.488 163.307C165.837 162.64 164.08 161.24 162.952 162.808ZM172.834 164.727C172.43 164.504 171.715 164.616 171.664 164.014C171.58 165.179 172.215 165.487 172.834 164.727ZM114.291 144.902C112.982 144.718 112.651 143.04 111.757 144.4C112.374 143.901 113.55 146.118 114.291 144.902ZM102.439 139.374C102.547 139.08 102.655 138.785 102.762 138.492C102.64 138.078 101.698 138.283 101.808 137.19C101.011 138.983 100.256 136.609 99.1652 136.985C99.4542 138.955 101.415 138.191 102.439 139.374ZM98.4396 137.405C98.1434 135.125 95.934 136.655 95.7437 134.216C97.9232 134.709 99.4781 136.569 102.278 136.685C102.152 136.343 101.677 136.376 101.727 135.846C103.006 135.51 103.183 136.578 103.468 137.734C103.669 136.914 103.94 137.252 104.173 136.977C104.285 137.771 104.544 138.975 105.364 138.026C101.802 133.508 93.2308 130.856 89.2152 129.774C91.5604 131.569 93.6882 131.086 95.2995 133.084C93.9843 134.169 93.6275 130.973 91.8914 132.627C92.7223 132.55 93.5026 133.847 94.2301 134.052C94.4532 133.18 95.496 134.656 94.4587 135.773C95.683 136.179 97.5006 136.687 98.4396 137.405ZM90.7212 131.914C89.5321 130.712 88.6247 130.92 87.4005 130.826C88.6491 131.777 89.5048 132.979 90.7212 131.914ZM79.5678 127.603C79.2339 127.605 78.9074 127.725 78.6069 128.276C78.9919 128.469 79.5182 129.434 80.1397 128.779C80.0379 128.137 79.2338 128.249 79.3329 127.856C79.4158 127.865 79.4996 127.862 79.5678 127.603ZM77.7324 128.321C78.3462 126.807 78.3268 128.323 78.5867 127.941C78.4154 127.799 78.7338 127.267 78.9093 127.058C77.7142 127.474 77.8158 126.093 76.4353 127.566C76.2301 126.892 75.177 127.127 75.46 125.929C75.0335 126.445 75.3353 126.307 75.0307 127.105C75.7926 127.122 75.9542 127.785 76.3475 128.197C76.8832 126.622 77.4007 128.088 77.7324 128.321ZM74.1164 126.477C73.1622 126.515 73.3558 125.187 72.6696 125.346C72.9803 125.848 72.5707 127.121 73.0465 127.446C73.2569 125.782 73.4338 127.494 74.1164 126.477ZM106.944 137.225C107.799 139.761 110.279 139.63 111.898 140.495C111.632 140.316 111.891 139.613 112.2 139.274C110.417 138.309 108.718 137.14 106.944 137.225ZM83.0772 129.74C83.3272 129.747 83.4355 131.074 83.4806 130.203C83.4087 130.16 83.3459 130.108 83.4604 129.865C83.9465 129.882 84.1343 130.217 84.3747 130.495C84.7957 129.438 83.3804 129.427 83.0772 129.74ZM84.8452 123.732C84.7963 122.886 84.2201 123.906 83.843 123.733C83.903 123.57 83.8613 123.366 83.7157 123.691C83.815 124.621 84.2536 124.189 84.8452 123.732ZM112.23 181.448C111.584 182.173 111.958 181.769 111.417 182.499C108.251 180.592 106.314 180.015 103.289 178.521C103.401 178.289 103.524 178.27 103.632 177.974C103.223 178.031 102.115 178.884 102.207 177.176C102.009 177.353 101.818 177.649 101.628 177.977C101.496 177.88 101.717 177.404 101.823 177.052C101.7 177.074 101.589 177.306 101.461 177.262C100.991 177.44 101.764 177.673 101.138 178.145C100.327 177.612 100.927 176.431 99.7326 177.686C99.1823 177.3 99.1007 176.117 98.3078 176.89C98.1024 176.638 98.205 176.342 98.5027 175.964C97.5354 176.813 97.2474 175.787 96.3514 175.59C96.5792 175.223 96.8249 175.131 97.0775 175.169C97.3443 174.123 96.354 175.135 96.506 173.993C97.0044 173.828 97.3818 173.147 97.6148 173.699C97.4613 171.836 94.9895 171.632 94.1058 171.56C94.5416 171.325 94.4621 170.002 94.0852 171.225C93.9578 170.885 94.2698 170.073 94.005 169.881C94.2909 169.128 94.7534 169.655 94.6903 168.788C94.2878 168.566 94.2464 170.051 93.6213 169.757C93.65 170.261 94.03 170.391 93.5954 171.393C93.417 171.213 93.2696 171.544 93.1234 171.899C92.8493 171.125 94.0796 170.869 93.5348 170.385C92.9914 171.182 91.8431 171.134 91.3158 170.977C92.2561 172.365 93.7092 171.509 94.5693 173.03C93.8256 174.731 93.3532 173.564 93.1848 172.906C92.83 172.87 93.1749 173.47 92.7546 174.083C92.6789 173.851 91.8493 173.695 91.7332 173.748C91.5311 172.909 92.4388 173.2 92.6743 172.739C92.4283 172.581 91.6087 171.295 90.7108 173.413C90.751 172.774 90.9538 171.961 90.6104 171.734C90.5709 172.014 90.5293 172.297 90.6503 172.406C90.0374 172.814 90.7235 170.938 91.2957 170.641C90.09 169.266 86.9612 168.577 84.4656 167.416C83.2499 166.852 81.7515 166.468 80.8481 165.574C80.2844 165.014 77.8922 164.448 76.5051 164.152C76.3653 164.005 76.669 163.38 76.8072 162.934C75.3613 164.334 74.7075 162.181 72.76 162.266C72.6289 162.17 72.8488 161.695 72.9553 161.343C72.761 161.125 72.0748 162.069 72.552 160.881C70.6596 162.271 69.3846 160.322 68.1215 160.09C67.9442 160.056 67.6186 160.578 67.6514 160.594C67.3912 160.465 67.4047 159.436 66.9517 159.378C66.42 159.308 66.2637 159.126 65.782 158.664C65.3472 158.249 64.4213 157.516 64.2088 157.491C64.0417 157.47 63.8508 158.149 63.6104 157.954C63.4176 157.796 63.6559 157.241 63.5613 157.002C63.4907 157.128 62.4396 156.869 61.9301 157.073C62.484 155.947 59.9409 156.405 59.0796 155.482C59.3699 154.906 59.6738 155.031 59.6367 154.347C58.756 154.544 58.2027 156.044 57.9972 154.139C56.968 155.163 56.8638 154.371 55.8665 154.1C56.0812 153.517 56.351 153.841 56.5513 153.007C55.9721 154.056 55.967 152.558 55.3358 153.596C55.2389 153.505 55.3267 153.226 55.4306 153.088C54.3082 153.944 53.1052 152.806 52.3767 152.299C52.8163 151.546 52.684 151.219 53.0625 151.205C52.8432 150.702 52.0723 150.118 52.8133 149.149C52.4993 149.428 52.3667 149.385 52.3028 148.981C52.1341 149.336 52.1584 149.485 52.2398 149.573C50.9537 148.555 49.02 147.397 48.2617 146.341C47.9314 147.075 48.0781 146.471 47.4084 146.72C47.6026 146.491 47.7882 146.101 47.9665 145.585C47.6317 145.579 47.3814 146.953 47.0253 146.593C47.6689 144.509 45.638 146.411 45.9432 145.251C45.7755 145.25 45.639 145.753 45.4929 146.092C45.1366 145.425 44.8727 145.567 43.9596 145.59C45.4499 144.669 43.9996 144.882 43.428 145.088C43.5958 144.413 43.8255 144.749 44.0066 144.288C43.9987 143.683 43.5621 143.195 43.1321 144.332C43.0535 142.706 42.3129 142.492 41.6938 141.225C42.7123 140.236 43.8218 140.395 45.2974 140.759C45.5343 140.691 45.3839 140.366 45.6196 139.876C47.691 139.798 49.1844 141.299 51.287 140.414C48.9311 137.578 44.9917 137.762 42.3728 135.847C43.509 135.33 43.9554 135.273 45.2294 135.465C45.4269 134.598 44.5718 134.859 44.5302 134.249C44.8768 133.763 45.2807 134.236 45.6392 133.953C44.2425 132.388 42.3178 132.368 40.0859 131.147C40.3532 130.036 40.7582 131.215 41.0075 129.801C44.8883 131.57 49.1041 129.608 50.674 132.309C50.3366 132.941 49.916 132.188 49.5455 132.267C50.1437 133.904 51.7674 134.05 53.0545 134.405C56.6533 135.395 60.2688 136.307 63.744 137.245C63.8443 136.958 63.6713 136.964 63.5952 136.868C67.6641 136.804 73.3095 138.607 76.497 141.09C76.7311 140.815 77.0018 141.154 77.202 140.334C77.723 142.147 79.2325 141.513 80.5433 141.759C83.8973 142.381 86.8857 145.332 90.0371 145.524C89.1459 146.843 90.3836 145.758 90.9308 145.816C93.1189 146.054 95.9375 148.198 98.3798 148.914C98.1468 146.852 95.2427 147.791 94.4262 145.643C94.6265 144.815 94.9511 146.052 95.1518 145.222C93.9472 142.387 91.0015 144.304 89.795 141.492C89.5106 141.728 89.6718 141.993 89.2159 142.291C85.6375 141.827 80.9402 139.146 77.0213 137.31C76.5571 137.092 75.8734 137.824 75.2922 137.733C70.407 136.967 67.4843 132.588 62.9291 132.039C65.4767 131.897 66.8983 133.34 70.0424 133.709C70.21 133.71 70.3463 133.206 70.4924 132.867C72.1209 133.426 72.3499 134.514 73.619 134.879C79.7481 136.649 86.5622 139.752 93.8479 140.185C94.4121 140.108 94.2313 139.159 94.6412 138.797C95.4568 140.553 97.4836 139.292 97.8279 141.817C98.2695 141.666 97.8176 141.019 97.7674 140.809C99.3128 140.286 99.6666 143.931 101.68 143.407C101.878 142.42 101.177 142.397 101.196 141.602C101.232 141.348 102.031 141.762 101.982 142.189C102.851 140.807 104.719 142.42 105.666 143.066C106.388 141.707 107.946 144.159 109.034 142.85C105.835 141.026 101.117 140.697 98.0968 137.951C97.866 138.438 97.993 138.541 98.1362 138.624C97.6212 138.942 97.2406 138.668 97.4581 137.743C96.9709 137.527 97.3333 138.208 96.8804 138.541C96.6069 138.141 96.5656 137.948 96.4559 137.744C95.0069 138.206 94.1335 136.716 93.2222 136.026C91.0948 134.841 93.8491 136.632 94.547 135.142C92.2671 133.447 88.5155 133.338 86.5664 131.542C87.0432 130.026 87.0207 131.684 87.3789 130.492C86.6061 129.634 85.526 129.864 84.8049 129.318C84.6252 130.346 85.6872 130.042 85.1815 131.42C84.1202 131.273 83.1139 130.423 82.3722 130.498C83.1741 128.376 81.3106 128.499 80.7107 129.955C80.0729 130.221 80.7608 129.065 80.2876 129.157C80.1005 129.176 79.9443 129.699 80.072 129.746C78.238 129.52 73.989 128.439 72.2806 127.195C72.1797 126.945 72.2729 126.486 72.4553 125.933C71.9896 126.061 72.1849 126.906 71.9171 127.404C71.0318 126.414 69.8318 127.142 69.5775 125.981C69.885 124.828 70.3184 125.804 70.6872 125.684C70.678 125.009 70.246 125.446 70.862 124.424C67.7513 123.721 66.9954 123.444 64.3474 122.291C66.7105 120.94 68.1714 123.602 70.2497 122.577C71.0879 123.761 72.2809 123.086 73.2083 123.874C73.5631 123.912 73.2182 123.31 73.6385 122.697C74.1605 122.5 73.9373 122.765 74.4049 122.949C74.7819 122.187 74.3483 122.293 74.3439 121.94C74.7306 121.213 74.6979 122.69 75.2179 121.897C74.9975 120.468 73.4073 122.783 72.6838 121.397C72.7912 120.81 72.377 121.068 72.8783 120.474C72.2271 120.337 72.1008 119.636 71.3253 119.634C70.7653 119.458 71.4891 119.12 71.6892 119.424C72.949 119.614 74.8028 119.043 75.1367 120.554C76.0158 119.783 75.7535 121.058 76.3944 120.636C76.3609 121.141 76.0709 121.898 75.6007 122.023C77.3384 123.98 80.1213 123.834 82.3913 124.575C82.2732 122.448 79.93 124.04 79.4803 121.974C80.6351 121.66 81.4443 122.315 82.398 122.601C81.8129 123.504 82.9697 123.74 83.4602 123.608C83.6963 123.543 83.5476 123.214 83.7825 122.725C84.4383 123.492 85.259 122.978 86.3372 123.561C86.3226 123.995 86.0586 124.696 86.2902 124.865C86.7393 122.818 86.5979 125.659 87.4196 124.904C85.8172 126.901 86.1564 123.414 84.8855 124.403C85.8932 126.058 86.8832 127.476 88.6697 126.961C88.9367 126.198 88.2367 126.471 88.8256 125.364C89.7805 125.679 90.1017 126.247 91.1244 126.117C90.9388 126.503 90.7149 126.256 90.505 126.244C91.0232 128.306 92.9504 128.882 94.5863 129.556C95.0124 129.116 94.8867 128.634 94.7607 128.296C95.0912 127.532 95.5094 128.243 95.8498 127.664C97.1874 131.442 101.804 129.363 102.951 133.282C103.115 132.713 103.546 132.909 103.998 131.979C105.012 132.222 105.574 133.353 106.896 132.269C107.336 133.95 110.099 132.388 109.74 135.835C111.75 133.923 112.78 134.622 114.621 135.785C114.437 136.2 114.201 135.764 114.022 136.249C114.441 136.931 115.348 137.091 115.978 137.549C116.125 136.617 115.284 136.743 114.788 136.5C115.429 135.007 115.514 136.458 116.281 136.328C116.057 139.383 118.623 138.7 120.066 138.886C120.111 138.302 119.484 138.437 119.386 138.006C120.969 137.209 121.643 139.279 122.944 138.84C122.8 139.233 122.657 139.625 122.514 140.017C124.739 141.519 126.728 141.504 129.37 141.603C129.72 141.532 129.383 141.094 129.821 140.762C132.739 141.568 135.735 143.276 138.957 142.765C138.929 142.452 137.639 142.708 138.238 141.212C138.575 141.829 139.842 142.131 139.999 143.437C143.144 144.066 146.912 144.28 150.245 145.145C153.002 145.858 155.991 145.864 158.721 146.602C164.107 148.056 168.223 150.412 172.833 152.21C174.175 152.733 175.306 153.503 175.912 155.524C174.609 158.095 173.697 157.121 172.154 157.587C172.296 158.211 172.133 159.161 172.639 159.394C172.535 159.561 171.907 160.42 172.208 160.571C170.775 163.191 169.497 161.684 168.236 163.22C168.517 164.787 170.114 163.586 171.322 164.561C171.423 163.559 170.931 163.191 170.346 162.924C171.824 162.182 173.48 163.541 174.367 165.228C173.39 166.377 173.355 164.831 172.129 165.483C171.916 166.952 171.071 167.106 170.797 168.342C170.943 168.901 171.468 169.054 171.859 169.349C171.419 169.656 171.034 170.889 170.576 170.904C170.174 171.932 170.414 172.27 170.441 172.837C170.64 173.061 171.346 171.623 171.107 171.408C171.814 170.286 172.047 172.752 172.599 171.237C172.398 172.577 171.52 172.284 171.06 172.711C171.018 173.591 171.499 173.908 171.672 174.558C171.072 175.247 170.648 174.236 170.267 174.097C170.03 174.163 170.179 174.491 169.944 174.98C170.57 175.791 171.945 176.673 172.559 176.824C172.103 178.132 172.249 176.566 171.833 177.246C172.151 178.605 171.323 180.971 170.469 183.717C169.56 184.016 169.263 184.366 168.466 183.718C168.226 183.936 168.233 184.38 167.78 184.812C167.564 186.171 168.704 186.642 169.266 186.616C168.463 187.798 168.905 188.97 169.192 189.557C168.876 190.527 168.484 190.276 168.143 190.86C167.38 194.381 165.364 194.423 164.077 196.116C161.389 195.952 159.32 193.492 156.648 193.355C155.804 193.311 154.744 193.868 153.919 193.779C152.04 193.577 150.32 192.746 148.446 192.317C142.767 191.012 137.703 188.728 131.646 187.805C129.729 187.512 127.305 187.371 125.192 186.68C121.667 185.526 117.736 185.135 115.316 182.787C115.076 183.005 115.087 183.508 114.61 183.545C114.302 181.975 111.915 184.353 112.23 181.448Z" fill="#a2cbcf" fill-opacity="0.3"/>
</svg>