<svg xmlns="http://www.w3.org/2000/svg" xmlns:xlink="http://www.w3.org/1999/xlink" version="1.1" id="Layer_1" x="0px" y="0px" viewBox="0 0 21 21" style="enable-background:new 0 0 21 21;" xml:space="preserve">
    <style type="text/css">
        .st0{fill:#b0bec5;}
    </style>
    <title>heart icon</title>
    <desc>Created with Sketch.</desc>
    <g id="Symbols">
        <g id="m:-bmi-calc-header" transform="translate(-235.000000, -83.000000)">
            <g id="icons-at-top" transform="translate(62.000000, 82.000000)">
                <path id="heart-icon" class="st0" d="M193.9,6c-0.2-1.1-0.6-2.1-1.3-3c-1.1-1.3-2.6-2-4.2-2c-1,0-1.9,0.3-2.8,0.8     c-0.9,0.5-1.6,1.3-2.1,2.3c0,0,0,0,0-0.1c-0.5-0.9-1.2-1.7-2.1-2.2c-0.8-0.5-1.8-0.8-2.8-0.8c-0.3,0-0.6,0-0.8,0.1     c-1.5,0.2-2.9,1.1-3.7,2.4c-0.5,0.7-0.8,1.5-0.9,2.3c-0.2,0.9-0.2,1.8,0,2.7c0.2,1,0.5,1.9,1,2.8c0.1,0.2,0.2,0.3,0.2,0.5h1.2     l1.5-2.5l2.2,2.1l2.1-7.8l2.1,7.6l1.7-2.7l2.1,3.3h0.8c0.2-0.3,0.5-0.5,0.8-0.5c0.5,0,0.9,0.4,0.9,1c0,0.5-0.4,1-0.9,1     c-0.4,0-0.7-0.2-0.8-0.6h-1.2l-1.7-2.6l-2.1,3.2l-1.7-6.4l-1.7,6.2l-2.5-2.4l-1.3,2h-1.1c0.2,0.4,0.5,0.7,0.8,1.1     c1.8,2.3,4.1,4.2,6.2,6c0.4,0.4,0.9,0.8,1.4,1.2c0.1,0,0.1,0.1,0.2,0.1c0.1,0,0.1,0,0.2-0.1c1.9-1.4,5.5-4.7,6.9-6.3     c1.1-1.3,2.5-3.1,3.2-5.5C194,8.1,194.1,7,193.9,6"/>
            </g>
        </g>
    </g>
    </svg>