<svg xmlns="http://www.w3.org/2000/svg" xmlns:xlink="http://www.w3.org/1999/xlink" version="1.1" id="Layer_1" x="0px" y="0px" viewBox="0 0 22 23" style="enable-background:new 0 0 22 23;" xml:space="preserve">
    <style type="text/css">
        .st0{fill:#b0bec5;stroke:#C7CED2;stroke-width:0.25;}
    </style>
    <title>Group 4</title>
    <desc>Created with Sketch.</desc>
    <g id="Symbols">
        <g id="m:-w2h-ratio-w-Results" transform="translate(-193.000000, -81.000000)">
            <g id="Group-4" transform="translate(193.000000, 82.000000)">
                <path id="Fill-1" class="st0" d="M19.8,19.2c0,0.7-0.6,1.3-1.3,1.3H3.1c-0.7,0-1.3-0.6-1.3-1.3V3.8c0-0.7,0.6-1.3,1.3-1.3h3     c-0.6,0.9-0.9,1.9-0.9,3c0,3.1,2.5,5.6,5.6,5.6s5.6-2.5,5.6-5.6c0-1.1-0.3-2.2-0.9-3h3c0.7,0,1.3,0.6,1.3,1.3V19.2z M10.8,0.8     c2.6,0,4.7,2.1,4.7,4.7s-2.1,4.7-4.7,4.7S6.1,8.2,6.1,5.6S8.2,0.8,10.8,0.8L10.8,0.8z M18.5,1.7h-3.7c-1-1.1-2.4-1.7-4-1.7     s-3,0.7-4,1.7H3.1C2,1.7,1,2.7,1,3.8v15.4c0,1.2,1,2.1,2.1,2.1h15.4c1.2,0,2.1-1,2.1-2.1V3.8C20.6,2.7,19.7,1.7,18.5,1.7     L18.5,1.7z"/>
                <path id="Fill-3" class="st0" d="M11.7,5.6c0-0.5-0.4-0.9-0.9-0.9c-0.5,0-0.9,0.4-0.9,0.9c0,0.3,0.2,0.6,0.4,0.7v2.3     c0,0.2,0.2,0.4,0.4,0.4s0.4-0.2,0.4-0.4V6.3C11.5,6.1,11.7,5.9,11.7,5.6"/>
            </g>
        </g>
    </g>
    </svg>