
<!-- Generator: Adobe Illustrator 20.1.0, SVG Export Plug-In . SVG Version: 6.00 Build 0)  -->
<svg version="1.1" id="Layer_1" xmlns="http://www.w3.org/2000/svg" xmlns:xlink="http://www.w3.org/1999/xlink" x="0px" y="0px"
	 viewBox="0 0 20 20" style="enable-background:new 0 0 20 20;" xml:space="preserve">
<style type="text/css">
	.st0{fill:#b0bec5;}
</style>
<title>bmi</title>
<desc>Created with Sketch.</desc>
<g id="Symbols">
	<g id="m:-bmi-calc-header" transform="translate(-62.000000, -83.000000)">
		<g id="icons-at-top" transform="translate(62.000000, 82.000000)">
			<path id="bmi" class="st0" d="M10,1C6.1,1,2.7,3.2,1.1,6.5h17.9C17.3,3.2,13.9,1,10,1L10,1z M19.6,8.3c-0.1-0.3-0.2-0.5-0.2-0.8
				H0.6C0.5,7.8,0.4,8.1,0.4,8.3C0.1,9.2,0,10.1,0,11c0,1.1,0.2,2.2,0.5,3.3c0,0.1,0,0.1,0.1,0.2h3.2v-0.6c0-0.3,0.2-0.5,0.5-0.5
				c0.1,0,0.3,0.1,0.4,0.2c0.1,0.1,0.2,0.2,0.2,0.4v0.6h1.7v-2.2c0-0.3,0.2-0.5,0.5-0.5c0.1,0,0.3,0.1,0.4,0.2
				c0.1,0.1,0.2,0.2,0.2,0.4v2.2h1.7v-4.3c0-0.3,0.2-0.5,0.5-0.5c0.1,0,0.3,0.1,0.4,0.2c0.1,0.1,0.2,0.2,0.2,0.4v4.3h1.7v-2.2
				c0-0.3,0.2-0.5,0.5-0.5c0.1,0,0.3,0.1,0.4,0.2c0.1,0.1,0.2,0.2,0.2,0.4v2.2h1.7v-0.6c0-0.3,0.2-0.5,0.5-0.5
				c0.1,0,0.3,0.1,0.4,0.2c0.1,0.1,0.2,0.2,0.2,0.4v0.6h3.2c0-0.1,0-0.1,0.1-0.2c0.4-1,0.5-2.1,0.5-3.3C20,10.1,19.9,9.2,19.6,8.3
				L19.6,8.3z M1.1,15.5c1.6,3.3,5,5.5,8.9,5.5c3.9,0,7.3-2.2,8.9-5.5H1.1z"/>
		</g>
	</g>
</g>
</svg>
