<svg xmlns="http://www.w3.org/2000/svg" xmlns:xlink="http://www.w3.org/1999/xlink" version="1.1" id="Layer_1" x="0px" y="0px" viewBox="0 0 23 20" style="enable-background:new 0 0 23 20;" xml:space="preserve">
    <style type="text/css">
        .st0{fill:#b0bec5;}
    </style>
    <title>Group 6</title>
    <desc>Created with Sketch.</desc>
    <g id="Symbols">
        <g id="m:-bmi-calc-header" transform="translate(-104.000000, -83.000000)">
            <g id="icons-at-top" transform="translate(62.000000, 82.000000)">
                <g id="Group-2" transform="translate(42.428571, 1.571429)">
                    <g id="Group-6">
                        <path id="Fill-1" class="st0" d="M16.9,15.1c-1.2,0.5-3.6,0.7-5.4,0.3v-2.3l1.4-1.5c0.2-0.2,0.2-0.5,0-0.7       c-0.2-0.2-0.5-0.2-0.6,0l-1.3,1.3L9.8,11c-0.2-0.2-0.5-0.2-0.6,0c-0.2,0.2-0.2,0.5,0,0.7l1.4,1.5v2.3c-1.8,0.4-4.2,0.1-5.4-0.3       c-0.3-2.5,0.4-3.9,1-5.4C6.5,9.2,6.7,8.6,6.9,8c0.7,0.2,2,0.6,4.2,0.6c0.1,0,0.1,0,0.2,0c2,0,3.3-0.4,3.9-0.6       c0.2,0.6,0.4,1.2,0.7,1.7C16.6,11.2,17.2,12.6,16.9,15.1 M11.1,3.9c0.1,0,0.1,0,0.2,0c1.8,0,3.1-0.3,3.8-0.5       c-0.2,0.7-0.3,1.4-0.3,2.2c0,0.6,0.1,1.1,0.2,1.5c-0.5,0.2-1.8,0.6-3.9,0.6C9,7.7,7.7,7.3,7.2,7.1c0.1-0.5,0.2-1,0.2-1.5       C7.4,4.8,7.2,4,7,3.4C7.8,3.6,9.1,3.9,11.1,3.9 M15.7,5.6c0-1.4,0.5-2.5,1-3.7c0.3-0.6,0.5-1.1,0.8-1.8c0.1-0.2,0-0.5-0.3-0.6       c-0.2-0.1-0.5,0-0.6,0.3c-0.2,0.6-0.5,1.2-0.7,1.7c-0.1,0.3-0.2,0.5-0.4,0.8c0,0,0,0-0.1,0c0,0-1.4,0.7-4.4,0.7       c-2.9,0-4.4-0.6-4.5-0.7C6.5,2,6.3,1.7,6.2,1.4C6,0.9,5.7,0.4,5.5-0.2C5.4-0.4,5.2-0.6,4.9-0.5C4.7-0.4,4.6-0.1,4.7,0.1       c0.2,0.6,0.5,1.2,0.7,1.7c0.6,1.2,1.1,2.3,1,3.7c-0.1,1.6-0.5,2.6-1,3.8c-1,2.1-1.9,4.3-0.2,9.8c0.1,0.2,0.2,0.3,0.4,0.3       c0,0,0.1,0,0.1,0c0.2-0.1,0.4-0.3,0.3-0.6c-0.3-1-0.5-1.9-0.7-2.7c0.9,0.3,2.1,0.4,3.3,0.4c0.7,0,1.4-0.1,2-0.2V19       c0,0.3,0.2,0.5,0.4,0.5s0.4-0.2,0.4-0.5v-2.6c0.6,0.1,1.3,0.2,2,0.2c1.2,0,2.4-0.2,3.3-0.4c-0.1,0.8-0.4,1.7-0.7,2.7       c-0.1,0.2,0.1,0.5,0.3,0.6c0,0,0.1,0,0.1,0c0.2,0,0.4-0.1,0.4-0.3c1.7-5.5,0.7-7.7-0.2-9.8C16.2,8.2,15.7,7.1,15.7,5.6"/>
                        <path id="Fill-3" class="st0" d="M5.5,5.4L3.9,3.8c-0.2-0.2-0.5-0.2-0.6,0C3.1,4,3.1,4.3,3.3,4.5l0.8,0.8H0       c-0.2,0-0.4,0.2-0.4,0.5S-0.2,6.2,0,6.2h4.1L3.3,7.1c-0.2,0.2-0.2,0.5,0,0.7c0.1,0.1,0.2,0.1,0.3,0.1c0.1,0,0.2,0,0.3-0.1       l1.6-1.6C5.6,5.9,5.6,5.6,5.5,5.4"/>
                        <path id="Fill-5" class="st0" d="M22.1,5.3h-4.1l0.8-0.8c0.2-0.2,0.2-0.5,0-0.7c-0.2-0.2-0.5-0.2-0.6,0l-1.6,1.6       c-0.2,0.2-0.2,0.5,0,0.7l1.6,1.6c0.1,0.1,0.2,0.1,0.3,0.1c0.1,0,0.2,0,0.3-0.1c0.2-0.2,0.2-0.5,0-0.7l-0.8-0.8h4.1       c0.2,0,0.4-0.2,0.4-0.5C22.6,5.5,22.4,5.3,22.1,5.3"/>
                    </g>
                </g>
            </g>
        </g>
    </g>
    </svg>