<svg width="281" height="171" viewBox="0 0 281 171" fill="none" xmlns="http://www.w3.org/2000/svg">
<g clip-path="url(#clip0_34035_2472)">
<rect width="281" height="171" rx="10" fill="#354151"/>
<g clip-path="url(#clip1_34035_2472)">
<path fill-rule="evenodd" clip-rule="evenodd" d="M212.379 157.576L212.422 181.684C212.43 185.909 215.874 189.329 220.116 189.321C224.356 189.313 227.788 185.881 227.78 181.656L227.736 157.548L261.556 121.617C266.909 115.93 269.881 108.422 269.867 100.626L269.742 31.7506C269.692 4.28436 247.305 -17.9405 219.739 -17.8904C192.172 -17.8404 169.866 4.46581 169.916 31.9321L170.041 100.808C170.056 108.604 173.055 116.101 178.429 121.768L212.379 157.576ZM212.338 135.25L189.593 111.26C186.906 108.426 185.406 104.678 185.399 100.78L185.274 31.9039C185.239 12.889 200.682 -2.55379 219.766 -2.58847C238.851 -2.62318 254.349 12.7634 254.384 31.7783L254.426 54.8777C254.06 55.1332 253.711 55.4238 253.385 55.7504L227.598 81.537L227.516 36.2864C227.508 32.0606 224.064 28.6414 219.823 28.6494C215.582 28.6569 212.15 32.0888 212.158 36.3143L212.338 135.25ZM227.638 103.177L254.465 76.3499L254.509 100.654C254.516 104.552 253.03 108.306 250.354 111.149L227.696 135.222L227.638 103.177Z" fill="#4B5765"/>
</g>
<circle cx="233" cy="137" r="14" fill="#F94545"/>
<circle cx="247" cy="137" r="14" fill="#FFB700"/>
<circle opacity="0.5" cx="233" cy="137" r="14" fill="#F94545"/>
<path d="M23.536 132.072C24.328 132.072 25.032 131.816 25.504 131.432C25.976 131.048 26.28 130.624 26.432 130.184L25.536 129.776C25.384 130.184 25.12 130.52 24.752 130.776C24.392 131.024 23.992 131.152 23.56 131.152C22.984 131.152 22.48 130.936 22.056 130.512C21.632 130.08 21.424 129.528 21.424 128.856C21.424 128.176 21.64 127.632 22.064 127.208C22.488 126.784 22.992 126.568 23.56 126.568C24.544 126.568 25.2 127.128 25.512 127.936L26.4 127.528C26.264 127.08 25.96 126.656 25.512 126.28C25.064 125.896 24.368 125.648 23.576 125.648C22.704 125.648 21.96 125.96 21.328 126.576C20.696 127.192 20.384 127.96 20.384 128.888C20.384 129.872 20.768 130.712 21.368 131.248C21.968 131.768 22.736 132.072 23.536 132.072ZM29.7519 129.104C29.7519 129.344 29.6159 129.464 29.3519 129.464H28.8239C28.0719 129.464 27.0479 129.776 27.0479 130.768V130.816C27.0479 131.184 27.1839 131.488 27.4559 131.72C27.7279 131.952 28.0719 132.072 28.4879 132.072C29.0639 132.072 29.4799 131.856 29.7439 131.416V132H30.6799V129.28C30.6799 128.984 30.6319 128.728 30.5359 128.512C30.2719 127.928 29.7359 127.64 28.9359 127.64C28.0639 127.64 27.4559 128 27.1199 128.728L27.8479 129.144C28.0639 128.688 28.4239 128.464 28.9119 128.464C29.4479 128.464 29.7519 128.752 29.7519 129.104ZM29.7439 130.272C29.7439 130.912 29.3279 131.312 28.6799 131.312C28.2719 131.312 27.9999 131.08 27.9999 130.728C27.9999 130.544 28.0879 130.4 28.2559 130.296C28.4319 130.192 28.6239 130.136 28.8239 130.136H29.7439V130.272ZM34.2494 127.712C34.1934 127.696 34.1214 127.688 34.0174 127.688C33.4974 127.688 33.1054 127.928 32.8414 128.408V127.728H31.9134V132H32.8654V129.832C32.8654 129.088 33.2494 128.664 33.9774 128.664C34.0814 128.664 34.1694 128.672 34.2494 128.688V127.712ZM34.6643 129.856C34.6643 130.448 34.8643 130.968 35.2643 131.408C35.6643 131.848 36.1683 132.064 36.7683 132.064C36.9923 132.064 37.2483 132.008 37.5363 131.888C37.8323 131.768 38.0483 131.584 38.2003 131.336V132H39.1283V125.488H38.1763V128.336C38.0323 128.104 37.8243 127.936 37.5443 127.824C37.2723 127.704 37.0243 127.648 36.7923 127.648C36.1603 127.648 35.6403 127.872 35.2483 128.32C34.8563 128.768 34.6643 129.28 34.6643 129.856ZM36.9123 128.504C37.2883 128.504 37.5923 128.632 37.8323 128.896C38.0723 129.16 38.1923 129.48 38.1923 129.856C38.1923 130.232 38.0723 130.552 37.8323 130.816C37.6003 131.072 37.2883 131.2 36.9123 131.2C36.5363 131.2 36.2243 131.072 35.9843 130.816C35.7523 130.552 35.6323 130.232 35.6323 129.856C35.6323 129.48 35.7523 129.16 35.9843 128.896C36.2243 128.632 36.5363 128.504 36.9123 128.504ZM42.675 132H43.659V129.296H46.755V132H47.739V125.736H46.755V128.36H43.659V125.736H42.675V132ZM51.1471 127.64C50.5231 127.64 49.9871 127.856 49.5471 128.28C49.1071 128.704 48.8831 129.232 48.8831 129.856C48.8831 130.48 49.0991 131.008 49.5391 131.432C49.9791 131.856 50.5151 132.072 51.1391 132.072C51.7711 132.072 52.2991 131.856 52.7311 131.432C53.1711 131 53.3871 130.472 53.3871 129.84C53.3871 129.216 53.1711 128.696 52.7311 128.272C52.2911 127.848 51.7631 127.64 51.1471 127.64ZM50.2111 128.896C50.4511 128.632 50.7631 128.504 51.1391 128.504C51.5151 128.504 51.8271 128.632 52.0591 128.896C52.2991 129.16 52.4191 129.48 52.4191 129.856C52.4191 130.232 52.2991 130.552 52.0671 130.816C51.8351 131.08 51.5231 131.208 51.1471 131.208C50.7711 131.208 50.4591 131.072 50.2191 130.808C49.9791 130.536 49.8591 130.216 49.8591 129.84C49.8591 129.464 49.9791 129.152 50.2111 128.896ZM54.3822 132H55.3342V125.488H54.3822V132ZM56.3128 129.856C56.3128 130.448 56.5128 130.968 56.9128 131.408C57.3128 131.848 57.8168 132.064 58.4168 132.064C58.6408 132.064 58.8968 132.008 59.1848 131.888C59.4808 131.768 59.6968 131.584 59.8488 131.336V132H60.7768V125.488H59.8248V128.336C59.6808 128.104 59.4728 127.936 59.1928 127.824C58.9208 127.704 58.6728 127.648 58.4408 127.648C57.8088 127.648 57.2888 127.872 56.8968 128.32C56.5048 128.768 56.3128 129.28 56.3128 129.856ZM58.5608 128.504C58.9368 128.504 59.2408 128.632 59.4808 128.896C59.7208 129.16 59.8408 129.48 59.8408 129.856C59.8408 130.232 59.7208 130.552 59.4808 130.816C59.2488 131.072 58.9368 131.2 58.5608 131.2C58.1848 131.2 57.8728 131.072 57.6328 130.816C57.4008 130.552 57.2808 130.232 57.2808 129.856C57.2808 129.48 57.4008 129.16 57.6328 128.896C57.8728 128.632 58.1848 128.504 58.5608 128.504ZM65.9821 130.144C65.9901 130.072 65.9981 129.976 65.9981 129.848C65.9981 129.184 65.8141 128.656 65.4461 128.248C65.0781 127.84 64.5661 127.64 63.9181 127.64C63.3021 127.64 62.7901 127.856 62.3821 128.288C61.9741 128.72 61.7661 129.24 61.7661 129.856C61.7661 130.488 61.9821 131.024 62.4061 131.448C62.8381 131.872 63.3741 132.08 64.0061 132.08C64.7741 132.08 65.4701 131.712 65.8301 131.048L65.1421 130.592C64.9101 131.032 64.5261 131.256 63.9901 131.256C63.6621 131.256 63.3741 131.152 63.1261 130.944C62.8781 130.728 62.7501 130.464 62.7421 130.144H65.9821ZM63.9181 128.456C64.5261 128.456 64.9981 128.824 65.0301 129.424H62.7901C62.8781 128.84 63.3341 128.456 63.9181 128.456ZM69.3119 127.712C69.2559 127.696 69.1839 127.688 69.0799 127.688C68.5599 127.688 68.1679 127.928 67.9039 128.408V127.728H66.9759V132H67.9279V129.832C67.9279 129.088 68.3119 128.664 69.0399 128.664C69.1439 128.664 69.2319 128.672 69.3119 128.688V127.712Z" fill="#FAFAFD"/>
<path d="M21 147H22.23V139.17H21V147ZM28.7127 147V144.02C28.7127 143.21 29.1627 142.67 29.8927 142.67C30.6827 142.67 31.0327 143.18 31.0327 143.99V147H32.2227V143.7C32.2227 142.42 31.5727 141.54 30.2827 141.54C29.4927 141.54 28.9727 141.82 28.4227 142.42C28.0927 141.83 27.5427 141.54 26.7727 141.54C26.1327 141.54 25.6027 141.82 25.1827 142.38V141.66H24.0227V147H25.2127V144.03C25.2127 143.22 25.6627 142.67 26.3827 142.67C27.1727 142.67 27.5327 143.2 27.5327 144V147H28.7127ZM36.679 141.64C36.609 141.62 36.519 141.61 36.389 141.61C35.739 141.61 35.249 141.91 34.919 142.51V141.66H33.759V147H34.949V144.29C34.949 143.36 35.429 142.83 36.339 142.83C36.469 142.83 36.579 142.84 36.679 142.86V141.64ZM40.6371 143.38C40.6371 143.68 40.4671 143.83 40.1371 143.83H39.4771C38.5371 143.83 37.2571 144.22 37.2571 145.46V145.52C37.2571 145.98 37.4271 146.36 37.7671 146.65C38.1071 146.94 38.5371 147.09 39.0571 147.09C39.7771 147.09 40.2971 146.82 40.6271 146.27V147H41.7971V143.6C41.7971 143.23 41.7371 142.91 41.6171 142.64C41.2871 141.91 40.6171 141.55 39.6171 141.55C38.5271 141.55 37.7671 142 37.3471 142.91L38.2571 143.43C38.5271 142.86 38.9771 142.58 39.5871 142.58C40.2571 142.58 40.6371 142.94 40.6371 143.38ZM40.6271 144.84C40.6271 145.64 40.1071 146.14 39.2971 146.14C38.7871 146.14 38.4471 145.85 38.4471 145.41C38.4471 145.18 38.5571 145 38.7671 144.87C38.9871 144.74 39.2271 144.67 39.4771 144.67H40.6271V144.84ZM48.1291 147V143.71C48.1291 142.43 47.4391 141.55 46.1291 141.55C45.4491 141.55 44.9091 141.83 44.4991 142.38V141.66H43.3391V147H44.5291V144.03C44.5291 143.22 45.0091 142.68 45.7591 142.68C46.5491 142.68 46.9391 143.21 46.9391 144.01V147H48.1291ZM52.5039 139.17V147H53.7339V143.3L57.0239 147H58.6839L54.9839 142.91L58.4839 139.17H56.8539L53.7339 142.55V139.17H52.5039ZM64.2033 147V143.71C64.2033 142.43 63.5133 141.55 62.2033 141.55C61.5533 141.55 61.0133 141.81 60.6033 142.34V138.86H59.4133V147H60.6033V144.03C60.6033 143.22 61.0833 142.68 61.8333 142.68C62.6233 142.68 63.0133 143.21 63.0133 144.01V147H64.2033ZM68.7914 143.38C68.7914 143.68 68.6214 143.83 68.2914 143.83H67.6314C66.6914 143.83 65.4114 144.22 65.4114 145.46V145.52C65.4114 145.98 65.5814 146.36 65.9214 146.65C66.2614 146.94 66.6914 147.09 67.2114 147.09C67.9314 147.09 68.4514 146.82 68.7814 146.27V147H69.9514V143.6C69.9514 143.23 69.8914 142.91 69.7714 142.64C69.4414 141.91 68.7714 141.55 67.7714 141.55C66.6814 141.55 65.9214 142 65.5014 142.91L66.4114 143.43C66.6814 142.86 67.1314 142.58 67.7414 142.58C68.4114 142.58 68.7914 142.94 68.7914 143.38ZM68.7814 144.84C68.7814 145.64 68.2614 146.14 67.4514 146.14C66.9414 146.14 66.6014 145.85 66.6014 145.41C66.6014 145.18 66.7114 145 66.9214 144.87C67.1414 144.74 67.3814 144.67 67.6314 144.67H68.7814V144.84ZM76.2834 147V143.71C76.2834 142.43 75.5934 141.55 74.2834 141.55C73.6034 141.55 73.0634 141.83 72.6534 142.38V141.66H71.4934V147H72.6834V144.03C72.6834 143.22 73.1634 142.68 73.9134 142.68C74.7034 142.68 75.0934 143.21 75.0934 144.01V147H76.2834Z" fill="#FAFAFD"/>
<path d="M122.808 126.624V125.736H118.8V132H122.84V131.104H119.784V129.256H122.536V128.368H119.784V126.624H122.808ZM123.417 132H124.505L125.577 130.512L126.657 132H127.753L126.137 129.824L127.697 127.728H126.625L125.593 129.144L124.569 127.728H123.473L125.041 129.84L123.417 132ZM132.963 129.848C132.963 129.28 132.771 128.768 132.379 128.32C131.995 127.872 131.491 127.648 130.867 127.648C130.627 127.648 130.371 127.704 130.091 127.824C129.811 127.944 129.595 128.128 129.435 128.392V127.728H128.507V134.104H129.459V131.376C129.611 131.608 129.819 131.776 130.099 131.896C130.379 132.008 130.627 132.064 130.843 132.064C131.459 132.064 131.963 131.848 132.363 131.408C132.763 130.968 132.963 130.448 132.963 129.848ZM129.795 128.896C130.035 128.632 130.347 128.504 130.723 128.504C131.099 128.504 131.411 128.632 131.643 128.896C131.883 129.16 132.003 129.48 132.003 129.856C132.003 130.232 131.883 130.552 131.643 130.816C131.411 131.072 131.099 131.2 130.723 131.2C130.347 131.2 130.035 131.072 129.795 130.816C129.563 130.552 129.443 130.232 129.443 129.856C129.443 129.48 129.563 129.16 129.795 128.896ZM133.985 126.784C134.233 127.032 134.617 127.032 134.865 126.784C135.113 126.536 135.113 126.152 134.865 125.904C134.617 125.648 134.233 125.648 133.985 125.904C133.737 126.152 133.737 126.536 133.985 126.784ZM134.905 127.728H133.953V132H134.905V127.728ZM138.515 127.712C138.459 127.696 138.387 127.688 138.283 127.688C137.763 127.688 137.371 127.928 137.107 128.408V127.728H136.179V132H137.131V129.832C137.131 129.088 137.515 128.664 138.243 128.664C138.347 128.664 138.435 128.672 138.515 128.688V127.712ZM143.154 130.144C143.162 130.072 143.17 129.976 143.17 129.848C143.17 129.184 142.986 128.656 142.618 128.248C142.25 127.84 141.738 127.64 141.09 127.64C140.474 127.64 139.962 127.856 139.554 128.288C139.146 128.72 138.938 129.24 138.938 129.856C138.938 130.488 139.154 131.024 139.578 131.448C140.01 131.872 140.546 132.08 141.178 132.08C141.946 132.08 142.642 131.712 143.002 131.048L142.314 130.592C142.082 131.032 141.698 131.256 141.162 131.256C140.834 131.256 140.546 131.152 140.298 130.944C140.05 130.728 139.922 130.464 139.914 130.144H143.154ZM141.09 128.456C141.698 128.456 142.17 128.824 142.202 129.424H139.962C140.05 128.84 140.506 128.456 141.09 128.456ZM143.852 129.856C143.852 130.448 144.052 130.968 144.452 131.408C144.852 131.848 145.356 132.064 145.956 132.064C146.18 132.064 146.436 132.008 146.724 131.888C147.02 131.768 147.236 131.584 147.388 131.336V132H148.316V125.488H147.364V128.336C147.22 128.104 147.012 127.936 146.732 127.824C146.46 127.704 146.212 127.648 145.98 127.648C145.348 127.648 144.828 127.872 144.436 128.32C144.044 128.768 143.852 129.28 143.852 129.856ZM146.1 128.504C146.476 128.504 146.78 128.632 147.02 128.896C147.26 129.16 147.38 129.48 147.38 129.856C147.38 130.232 147.26 130.552 147.02 130.816C146.788 131.072 146.476 131.2 146.1 131.2C145.724 131.2 145.412 131.072 145.172 130.816C144.94 130.552 144.82 130.232 144.82 129.856C144.82 129.48 144.94 129.16 145.172 128.896C145.412 128.632 145.724 128.504 146.1 128.504Z" fill="#FAFAFD"/>
<path d="M118.07 140.61L118.64 141.55L120.4 140.49V147H121.63V139.17H120.46L118.07 140.61ZM122.689 140.61L123.259 141.55L125.019 140.49V147H126.249V139.17H125.079L122.689 140.61ZM128.748 147.05L132.328 138.85H131.138L127.558 147.05H128.748ZM133.119 147H138.629V145.89H134.859L136.679 144.38C137.369 143.81 137.859 143.32 138.149 142.91C138.439 142.49 138.589 141.99 138.589 141.42C138.589 140.72 138.339 140.15 137.839 139.72C137.339 139.28 136.699 139.06 135.929 139.06C135.259 139.06 134.679 139.23 134.189 139.58C133.709 139.93 133.389 140.39 133.229 140.96L134.329 141.42C134.639 140.6 135.169 140.19 135.919 140.19C136.789 140.19 137.319 140.76 137.319 141.51C137.319 141.86 137.219 142.17 137.019 142.45C136.819 142.72 136.449 143.09 135.919 143.54L133.119 145.93V147ZM139.691 147H145.201V145.89H141.431L143.251 144.38C143.941 143.81 144.431 143.32 144.721 142.91C145.011 142.49 145.161 141.99 145.161 141.42C145.161 140.72 144.911 140.15 144.411 139.72C143.911 139.28 143.271 139.06 142.501 139.06C141.831 139.06 141.251 139.23 140.761 139.58C140.281 139.93 139.961 140.39 139.801 140.96L140.901 141.42C141.211 140.6 141.741 140.19 142.491 140.19C143.361 140.19 143.891 140.76 143.891 141.51C143.891 141.86 143.791 142.17 143.591 142.45C143.391 142.72 143.021 143.09 142.491 143.54L139.691 145.93V147Z" fill="#FAFAFD"/>
<path d="M20.126 83.498L21.152 85.19L24.32 83.282V95H26.534V80.906H24.428L20.126 83.498ZM29.1785 95H39.0965V93.002H32.3105L35.5865 90.284C36.8285 89.258 37.7105 88.376 38.2325 87.638C38.7545 86.882 39.0245 85.982 39.0245 84.956C39.0245 83.696 38.5745 82.67 37.6745 81.896C36.7745 81.104 35.6225 80.708 34.2365 80.708C33.0305 80.708 31.9865 81.014 31.1045 81.644C30.2405 82.274 29.6645 83.102 29.3765 84.128L31.3565 84.956C31.9145 83.48 32.8685 82.742 34.2185 82.742C35.7845 82.742 36.7385 83.768 36.7385 85.118C36.7385 85.748 36.5585 86.306 36.1985 86.81C35.8385 87.296 35.1725 87.962 34.2185 88.772L29.1785 93.074V95ZM50.8005 91.04C50.8005 89.456 49.9905 88.358 48.3705 87.728V87.71C49.7925 87.026 50.4945 85.946 50.4945 84.488C50.4945 83.426 50.0625 82.544 49.2165 81.806C48.3705 81.068 47.2185 80.708 45.7785 80.708C43.3845 80.708 41.7105 82.004 41.0625 83.876L42.9885 84.758C43.5645 83.408 44.4825 82.724 45.7425 82.724C47.3265 82.724 48.2445 83.57 48.2445 84.722C48.2445 85.298 48.0105 85.802 47.5245 86.216C47.0565 86.63 46.4625 86.828 45.7425 86.828H44.3565V88.826H45.8685C46.6425 88.826 47.2725 89.042 47.7585 89.474C48.2625 89.888 48.5145 90.41 48.5145 91.004C48.5145 91.58 48.2625 92.084 47.7405 92.516C47.2185 92.93 46.5885 93.146 45.8325 93.146C44.4105 93.146 43.3845 92.444 42.7725 91.058L40.8645 91.994C41.7105 94.1 43.3485 95.162 45.7965 95.162C47.2545 95.162 48.4425 94.766 49.3785 93.974C50.3325 93.164 50.8005 92.192 50.8005 91.04ZM59.0708 80.906L52.3568 89.654V91.886H59.6108V95H61.7888V91.886H63.8768V89.888H61.7888V80.906H59.0708ZM59.6108 83.408V89.888H54.6248L59.6108 83.408ZM76.6314 80.906L69.9174 89.654V91.886H77.1714V95H79.3494V91.886H81.4374V89.888H79.3494V80.906H76.6314ZM77.1714 83.408V89.888H72.1854L77.1714 83.408ZM87.6998 95.162C89.1398 95.162 90.3638 94.748 91.3538 93.902C92.3438 93.056 92.8478 91.922 92.8478 90.5C92.8478 89.186 92.4158 88.106 91.5698 87.26C90.7238 86.414 89.5898 85.982 88.2038 85.982C87.1058 85.982 86.1698 86.306 85.4138 86.936L85.9718 82.904H92.1638V80.906H84.2978L83.2358 88.34L85.1258 89.114C85.8458 88.304 86.7278 87.908 87.7898 87.908C89.3558 87.908 90.5618 88.88 90.5618 90.536C90.5618 91.328 90.2918 91.958 89.7338 92.426C89.1938 92.894 88.5278 93.128 87.7358 93.128C86.3858 93.128 85.4138 92.444 84.8198 91.076L82.9118 92.138C83.7758 94.136 85.5398 95.162 87.6998 95.162ZM100.888 82.652C101.68 82.652 102.454 82.958 102.868 83.246C103.084 83.372 103.354 83.57 103.696 83.84L104.812 82.22C103.606 81.212 102.31 80.708 100.888 80.708C96.5499 80.708 94.6239 84.47 94.6239 88.448C94.6239 90.86 95.1459 92.588 96.2079 93.65C97.2339 94.676 98.5119 95.18 100.042 95.18C101.464 95.18 102.67 94.73 103.66 93.848C104.668 92.966 105.172 91.814 105.172 90.428C105.172 89.078 104.722 87.98 103.84 87.134C102.958 86.288 101.842 85.856 100.492 85.856C99.0699 85.856 97.6299 86.504 96.8379 87.638H96.8199C96.9099 86.234 97.2879 85.046 97.9719 84.092C98.6739 83.138 99.6459 82.652 100.888 82.652ZM100.006 87.782C100.852 87.782 101.536 88.034 102.076 88.538C102.616 89.024 102.886 89.69 102.886 90.5C102.886 92.084 101.662 93.164 100.006 93.164C99.1599 93.164 98.4579 92.912 97.8999 92.426C97.3419 91.94 97.0539 91.274 97.0539 90.446C97.0539 89.672 97.3419 89.042 97.9359 88.538C98.5299 88.034 99.2139 87.782 100.006 87.782ZM106.514 80.906V82.904H114.038L107.558 95H110.114L116.576 82.724V80.906H106.514ZM127.915 95.162C129.391 95.162 130.615 94.784 131.605 94.046C132.595 93.29 133.099 92.3 133.099 91.076C133.099 89.456 132.199 88.322 130.417 87.674V87.656C131.875 87.17 132.739 86.036 132.739 84.524C132.739 83.354 132.253 82.436 131.299 81.752C130.345 81.05 129.229 80.708 127.915 80.708C126.637 80.708 125.503 81.05 124.549 81.752C123.595 82.454 123.109 83.372 123.109 84.524C123.109 86.036 124.009 87.242 125.449 87.656V87.674C123.649 88.34 122.749 89.492 122.749 91.166C122.749 92.336 123.235 93.308 124.225 94.046C125.215 94.784 126.457 95.162 127.915 95.162ZM125.305 84.74C125.305 83.498 126.385 82.616 127.915 82.616C129.427 82.616 130.543 83.516 130.543 84.74C130.543 85.964 129.427 86.864 127.915 86.864C127.195 86.864 126.583 86.666 126.061 86.27C125.557 85.856 125.305 85.352 125.305 84.74ZM124.963 90.986C124.963 90.32 125.233 89.798 125.791 89.384C126.349 88.97 127.069 88.754 127.915 88.754C128.743 88.754 129.445 88.97 130.021 89.402C130.615 89.816 130.902 90.356 130.902 90.986C130.902 91.634 130.615 92.174 130.021 92.606C129.445 93.02 128.743 93.236 127.915 93.236C127.087 93.236 126.385 93.02 125.809 92.588C125.251 92.156 124.963 91.616 124.963 90.986ZM139.141 93.236C138.187 93.236 137.215 92.822 136.243 92.012L135.091 93.614C136.297 94.658 137.647 95.18 139.141 95.18C143.551 95.18 145.405 91.436 145.405 87.44C145.405 85.028 144.883 83.3 143.821 82.238C142.795 81.212 141.517 80.708 139.987 80.708C138.565 80.708 137.359 81.158 136.351 82.076C135.361 82.976 134.857 84.128 134.857 85.55C134.857 86.9 135.307 88.016 136.189 88.862C137.071 89.708 138.205 90.14 139.573 90.14C140.959 90.14 142.399 89.474 143.209 88.34H143.245C143.119 90.05 142.597 91.49 141.355 92.498C140.743 92.984 140.005 93.236 139.141 93.236ZM140.023 88.214C138.313 88.214 137.143 87.116 137.143 85.442C137.143 83.786 138.349 82.724 140.023 82.724C141.751 82.724 142.975 83.768 142.975 85.496C142.975 86.288 142.687 86.936 142.093 87.458C141.499 87.962 140.815 88.214 140.023 88.214ZM147.323 87.944C147.323 90.014 147.863 91.724 148.961 93.11C150.059 94.478 151.481 95.162 153.227 95.162C154.973 95.162 156.413 94.478 157.511 93.092C158.609 91.706 159.167 89.978 159.167 87.908C159.167 85.856 158.627 84.146 157.529 82.778C156.431 81.392 155.009 80.708 153.263 80.708C151.517 80.708 150.095 81.41 148.979 82.796C147.881 84.182 147.323 85.892 147.323 87.944ZM156.881 87.944C156.881 89.402 156.557 90.644 155.891 91.634C155.225 92.624 154.361 93.128 153.263 93.128C152.165 93.128 151.283 92.624 150.617 91.616C149.951 90.608 149.627 89.366 149.627 87.908C149.627 86.45 149.951 85.226 150.599 84.236C151.265 83.246 152.129 82.742 153.227 82.742C154.325 82.742 155.207 83.246 155.873 84.254C156.539 85.262 156.881 86.486 156.881 87.944ZM160.241 83.498L161.267 85.19L164.435 83.282V95H166.649V80.906H164.543L160.241 83.498ZM174.04 95H183.958V93.002H177.172L180.448 90.284C181.69 89.258 182.572 88.376 183.094 87.638C183.616 86.882 183.886 85.982 183.886 84.956C183.886 83.696 183.436 82.67 182.536 81.896C181.636 81.104 180.484 80.708 179.098 80.708C177.892 80.708 176.848 81.014 175.966 81.644C175.102 82.274 174.526 83.102 174.238 84.128L176.218 84.956C176.776 83.48 177.73 82.742 179.08 82.742C180.646 82.742 181.6 83.768 181.6 85.118C181.6 85.748 181.42 86.306 181.06 86.81C180.7 87.296 180.034 87.962 179.08 88.772L174.04 93.074V95ZM185.87 95H195.788V93.002H189.002L192.278 90.284C193.52 89.258 194.402 88.376 194.924 87.638C195.446 86.882 195.716 85.982 195.716 84.956C195.716 83.696 195.266 82.67 194.366 81.896C193.466 81.104 192.314 80.708 190.928 80.708C189.722 80.708 188.678 81.014 187.796 81.644C186.932 82.274 186.356 83.102 186.068 84.128L188.048 84.956C188.606 83.48 189.56 82.742 190.91 82.742C192.476 82.742 193.43 83.768 193.43 85.118C193.43 85.748 193.25 86.306 192.89 86.81C192.53 87.296 191.864 87.962 190.91 88.772L185.87 93.074V95ZM197.7 95H207.618V93.002H200.832L204.108 90.284C205.35 89.258 206.232 88.376 206.754 87.638C207.276 86.882 207.546 85.982 207.546 84.956C207.546 83.696 207.096 82.67 206.196 81.896C205.296 81.104 204.144 80.708 202.758 80.708C201.552 80.708 200.508 81.014 199.626 81.644C198.762 82.274 198.186 83.102 197.898 84.128L199.878 84.956C200.436 83.48 201.39 82.742 202.74 82.742C204.306 82.742 205.26 83.768 205.26 85.118C205.26 85.748 205.08 86.306 204.72 86.81C204.36 87.296 203.694 87.962 202.74 88.772L197.7 93.074V95ZM208.792 83.498L209.818 85.19L212.986 83.282V95H215.2V80.906H213.094L208.792 83.498Z" fill="white"/>
<path fill-rule="evenodd" clip-rule="evenodd" d="M22.1526 32.3485L20.9458 33.5553C20.7342 33.7669 20.7342 34.1098 20.9458 34.3214C21.1573 34.5329 21.5003 34.5329 21.7118 34.3214L22.9187 33.1145L26.4044 33.009C26.9561 32.9923 27.4807 32.7657 27.871 32.3754L31.3189 28.9274C32.6939 27.5524 32.6939 25.3232 31.3189 23.9482C29.9439 22.5732 27.7147 22.5732 26.3397 23.9482L22.8917 27.3962C22.5015 27.7865 22.2748 28.311 22.2581 28.8627L22.1526 32.3485ZM23.2703 31.2308L23.341 28.8955C23.3493 28.6196 23.4626 28.3574 23.6578 28.1622L27.1057 24.7143C28.0576 23.7623 29.601 23.7624 30.5529 24.7143C31.5048 25.6661 31.5048 27.2095 30.5529 28.1614L29.3965 29.3178C29.3655 29.3122 29.3335 29.3093 29.3009 29.3093H26.7238L28.9891 27.0441C29.2006 26.8325 29.2006 26.4896 28.9891 26.278C28.7776 26.0665 28.4346 26.0665 28.2231 26.278L23.2703 31.2308ZM25.6405 30.3927H28.3216L27.1049 31.6093C26.9098 31.8045 26.6475 31.9178 26.3717 31.9262L24.0363 31.9969L25.6405 30.3927Z" fill="white"/>
<path fill-rule="evenodd" clip-rule="evenodd" d="M22.1526 32.3485L20.9458 33.5553C20.7342 33.7669 20.7342 34.1098 20.9458 34.3214C21.1573 34.5329 21.5003 34.5329 21.7118 34.3214L22.9187 33.1145L26.4044 33.009C26.9561 32.9923 27.4807 32.7657 27.871 32.3754L31.3189 28.9274C32.6939 27.5524 32.6939 25.3232 31.3189 23.9482C29.9439 22.5732 27.7147 22.5732 26.3397 23.9482L22.8917 27.3962C22.5015 27.7865 22.2748 28.311 22.2581 28.8627L22.1526 32.3485ZM23.2703 31.2308L23.341 28.8955C23.3493 28.6196 23.4626 28.3574 23.6578 28.1622L27.1057 24.7143C28.0576 23.7623 29.601 23.7624 30.5529 24.7143C31.5048 25.6661 31.5048 27.2095 30.5529 28.1614L29.3965 29.3178C29.3655 29.3122 29.3335 29.3093 29.3009 29.3093H26.7238L28.9891 27.0441C29.2006 26.8325 29.2006 26.4896 28.9891 26.278C28.7776 26.0665 28.4346 26.0665 28.2231 26.278L23.2703 31.2308ZM25.6405 30.3927H28.3216L27.1049 31.6093C26.9098 31.8045 26.6475 31.9178 26.3717 31.9262L24.0363 31.9969L25.6405 30.3927Z" fill="#2FE3C1"/>
<path d="M46.98 29.394V27.812H42.122V24.634H47.386V23.038H40.4V34H42.122V29.394H46.98ZM55.826 30.752C55.84 30.626 55.854 30.458 55.854 30.234C55.854 29.072 55.532 28.148 54.888 27.434C54.244 26.72 53.348 26.37 52.214 26.37C51.136 26.37 50.24 26.748 49.526 27.504C48.812 28.26 48.448 29.17 48.448 30.248C48.448 31.354 48.826 32.292 49.568 33.034C50.324 33.776 51.262 34.14 52.368 34.14C53.712 34.14 54.93 33.496 55.56 32.334L54.356 31.536C53.95 32.306 53.278 32.698 52.34 32.698C51.766 32.698 51.262 32.516 50.828 32.152C50.394 31.774 50.17 31.312 50.156 30.752H55.826ZM52.214 27.798C53.278 27.798 54.104 28.442 54.16 29.492H50.24C50.394 28.47 51.192 27.798 52.214 27.798ZM61.8353 28.932C61.8353 29.352 61.5973 29.562 61.1353 29.562H60.2113C58.8953 29.562 57.1033 30.108 57.1033 31.844V31.928C57.1033 32.572 57.3413 33.104 57.8173 33.51C58.2933 33.916 58.8953 34.126 59.6233 34.126C60.6313 34.126 61.3593 33.748 61.8213 32.978V34H63.4593V29.24C63.4593 28.722 63.3753 28.274 63.2073 27.896C62.7453 26.874 61.8073 26.37 60.4073 26.37C58.8813 26.37 57.8173 27 57.2293 28.274L58.5033 29.002C58.8813 28.204 59.5113 27.812 60.3653 27.812C61.3033 27.812 61.8353 28.316 61.8353 28.932ZM61.8213 30.976C61.8213 32.096 61.0933 32.796 59.9593 32.796C59.2453 32.796 58.7693 32.39 58.7693 31.774C58.7693 31.452 58.9233 31.2 59.2173 31.018C59.5253 30.836 59.8613 30.738 60.2113 30.738H61.8213V30.976ZM69.6237 28.022V26.524H67.7897V24.214H66.1237V26.524H64.7517V28.022H66.1237V31.592C66.1237 33.216 67.0757 34.084 68.7137 34.084C69.0357 34.084 69.3437 34.028 69.6097 33.93V32.516C69.4277 32.558 69.2457 32.572 69.0777 32.572C68.2237 32.572 67.7897 32.222 67.7897 31.326V28.022H69.6237ZM78.0799 34V29.394C78.0799 27.602 77.1139 26.37 75.2799 26.37C74.3699 26.37 73.6139 26.734 73.0399 27.476V22.604H71.3739V34H73.0399V29.842C73.0399 28.708 73.7119 27.952 74.7619 27.952C75.8679 27.952 76.4139 28.694 76.4139 29.814V34H78.0799ZM87.1073 30.752C87.1213 30.626 87.1353 30.458 87.1353 30.234C87.1353 29.072 86.8133 28.148 86.1693 27.434C85.5253 26.72 84.6293 26.37 83.4953 26.37C82.4173 26.37 81.5213 26.748 80.8073 27.504C80.0933 28.26 79.7293 29.17 79.7293 30.248C79.7293 31.354 80.1073 32.292 80.8493 33.034C81.6053 33.776 82.5433 34.14 83.6493 34.14C84.9933 34.14 86.2113 33.496 86.8413 32.334L85.6373 31.536C85.2313 32.306 84.5593 32.698 83.6213 32.698C83.0473 32.698 82.5433 32.516 82.1093 32.152C81.6753 31.774 81.4513 31.312 81.4373 30.752H87.1073ZM83.4953 27.798C84.5593 27.798 85.3853 28.442 85.4413 29.492H81.5213C81.6753 28.47 82.4733 27.798 83.4953 27.798ZM92.9346 26.496C92.8366 26.468 92.7106 26.454 92.5286 26.454C91.6186 26.454 90.9326 26.874 90.4706 27.714V26.524H88.8466V34H90.5126V30.206C90.5126 28.904 91.1846 28.162 92.4586 28.162C92.6406 28.162 92.7946 28.176 92.9346 28.204V26.496ZM99.4107 34.126C100.797 34.126 102.029 33.678 102.855 33.006C103.681 32.334 104.213 31.592 104.479 30.822L102.911 30.108C102.645 30.822 102.183 31.41 101.539 31.858C100.909 32.292 100.209 32.516 99.4527 32.516C98.4447 32.516 97.5627 32.138 96.8207 31.396C96.0787 30.64 95.7147 29.674 95.7147 28.498C95.7147 27.308 96.0927 26.356 96.8347 25.614C97.5767 24.872 98.4587 24.494 99.4527 24.494C101.175 24.494 102.323 25.474 102.869 26.888L104.423 26.174C104.185 25.39 103.653 24.648 102.869 23.99C102.085 23.318 100.867 22.884 99.4807 22.884C97.9547 22.884 96.6527 23.43 95.5467 24.508C94.4407 25.586 93.8947 26.93 93.8947 28.554C93.8947 30.276 94.5667 31.746 95.6167 32.684C96.6667 33.594 98.0107 34.126 99.4107 34.126ZM110.288 28.932C110.288 29.352 110.05 29.562 109.588 29.562H108.664C107.348 29.562 105.556 30.108 105.556 31.844V31.928C105.556 32.572 105.794 33.104 106.27 33.51C106.746 33.916 107.348 34.126 108.076 34.126C109.084 34.126 109.812 33.748 110.274 32.978V34H111.912V29.24C111.912 28.722 111.828 28.274 111.66 27.896C111.198 26.874 110.26 26.37 108.86 26.37C107.334 26.37 106.27 27 105.682 28.274L106.956 29.002C107.334 28.204 107.964 27.812 108.818 27.812C109.756 27.812 110.288 28.316 110.288 28.932ZM110.274 30.976C110.274 32.096 109.546 32.796 108.412 32.796C107.698 32.796 107.222 32.39 107.222 31.774C107.222 31.452 107.376 31.2 107.67 31.018C107.978 30.836 108.314 30.738 108.664 30.738H110.274V30.976ZM118.159 26.496C118.061 26.468 117.935 26.454 117.753 26.454C116.843 26.454 116.157 26.874 115.695 27.714V26.524H114.071V34H115.737V30.206C115.737 28.904 116.409 28.162 117.683 28.162C117.865 28.162 118.019 28.176 118.159 28.204V26.496ZM118.885 30.248C118.885 31.284 119.235 32.194 119.935 32.964C120.635 33.734 121.517 34.112 122.567 34.112C122.959 34.112 123.407 34.014 123.911 33.804C124.429 33.594 124.807 33.272 125.073 32.838V34H126.697V22.604H125.031V27.588C124.779 27.182 124.415 26.888 123.925 26.692C123.449 26.482 123.015 26.384 122.609 26.384C121.503 26.384 120.593 26.776 119.907 27.56C119.221 28.344 118.885 29.24 118.885 30.248ZM122.819 27.882C123.477 27.882 124.009 28.106 124.429 28.568C124.849 29.03 125.059 29.59 125.059 30.248C125.059 30.906 124.849 31.466 124.429 31.928C124.023 32.376 123.477 32.6 122.819 32.6C122.161 32.6 121.615 32.376 121.195 31.928C120.789 31.466 120.579 30.906 120.579 30.248C120.579 29.59 120.789 29.03 121.195 28.568C121.615 28.106 122.161 27.882 122.819 27.882Z" fill="white"/>
</g>
<defs>
<clipPath id="clip0_34035_2472">
<rect width="281" height="171" rx="10" fill="white"/>
</clipPath>
<clipPath id="clip1_34035_2472">
<rect width="241" height="226" fill="white" transform="translate(99 -36)"/>
</clipPath>
</defs>
</svg>
