<svg xmlns="http://www.w3.org/2000/svg" width="20" height="20" viewBox="0 0 20 20" fill="none">
    <path d="M9.99968 10.4915C8.39816 10.4915 7.0957 9.18895 7.0957 7.58757C7.0957 5.98605 8.39829 4.68359 9.99968 4.68359C11.6012 4.68359 12.9036 5.98618 12.9036 7.58757C12.9036 7.86405 12.6795 8.0883 12.4029 8.0883C12.1264 8.0883 11.9022 7.86418 11.9022 7.58757C11.9022 6.53839 11.0487 5.68494 9.99954 5.68494C8.95036 5.68494 8.09692 6.53839 8.09692 7.58757C8.09692 8.63675 8.95036 9.49019 9.99954 9.49019C10.276 9.49019 10.5003 9.71432 10.5003 9.99093C10.5004 10.2674 10.2762 10.4915 9.99968 10.4915Z" fill="#1A162E"/>
    <path d="M9.99967 15.2978C8.39816 15.2978 7.0957 13.9952 7.0957 12.3938C7.0957 12.1174 7.31983 11.8931 7.59644 11.8931C7.87292 11.8931 8.09718 12.1172 8.09718 12.3938C8.09718 13.443 8.95063 14.2965 9.99981 14.2965C11.049 14.2965 11.9024 13.443 11.9024 12.3938C11.9024 11.3447 11.049 10.4912 9.99981 10.4912C9.72332 10.4912 9.49907 10.2671 9.49907 9.99048C9.49907 9.714 9.7232 9.48975 9.99981 9.48975C11.6013 9.48975 12.9038 10.7923 12.9038 12.3937C12.9036 13.9952 11.6012 15.2978 9.99967 15.2978Z" fill="#1A162E"/>
    <path d="M10.0003 5.68405C9.72377 5.68405 9.49951 5.45992 9.49951 5.18331V3.32545C9.49951 3.04896 9.72364 2.82471 10.0003 2.82471C10.2767 2.82471 10.501 3.04883 10.501 3.32545V5.18423C10.501 5.45994 10.2767 5.68408 10.0003 5.68408V5.68405Z" fill="#1A162E"/>
    <path d="M10.0003 17.1767C9.72377 17.1767 9.49951 16.9525 9.49951 16.6759V14.8171C9.49951 14.5407 9.72364 14.3164 10.0003 14.3164C10.2767 14.3164 10.501 14.5405 10.501 14.8171V16.6759C10.501 16.9524 10.2767 17.1767 10.0003 17.1767Z" fill="#1A162E"/>
    <path d="M10.0002 19.1668C4.94557 19.1668 0.833496 15.0541 0.833496 10.0002C0.833496 4.94623 4.94524 0.833496 10.0002 0.833496C15.0551 0.833496 19.1668 4.94524 19.1668 10.0002C19.1668 15.0551 15.0551 19.1668 10.0002 19.1668ZM10.0002 1.8351C5.49787 1.8351 1.8351 5.49788 1.8351 10.0002C1.8351 14.5024 5.49787 18.1652 10.0002 18.1652C14.5024 18.1652 18.1652 14.5018 18.1652 10.0002C18.1652 5.49854 14.5024 1.8351 10.0002 1.8351Z" fill="#1A162E"/>
  </svg>