<svg xmlns="http://www.w3.org/2000/svg" width="14" height="14" viewBox="0 0 14 14" fill="none">
  <path fill-rule="evenodd" clip-rule="evenodd" d="M6.99935 12.8332C10.221 12.8332 12.8327 10.2215 12.8327 6.99984C12.8327 3.77818 10.221 1.1665 6.99935 1.1665C3.77769 1.1665 1.16602 3.77818 1.16602 6.99984C1.16602 10.2215 3.77769 12.8332 6.99935 12.8332ZM7.58268 4.08317C7.58268 3.761 7.32152 3.49984 6.99935 3.49984C6.67718 3.49984 6.41602 3.761 6.41602 4.08317V6.99984C6.41602 7.15455 6.47747 7.30292 6.58687 7.41232L8.0452 8.87065C8.27301 9.09846 8.64236 9.09846 8.87016 8.87065C9.09797 8.64284 9.09797 8.2735 8.87016 8.04569L7.58268 6.75821V4.08317Z" fill="white"/>
</svg>