<svg xmlns="http://www.w3.org/2000/svg" width="12" height="12" viewBox="0 0 12 12" fill="none">
    <path fill-rule="evenodd" clip-rule="evenodd" d="M6 12C8.20914 12 10 10.2091 10 8C10 5.79086 8.20914 4 6 4C3.79086 4 2 5.79086 2 8C2 10.2091 3.79086 12 6 12ZM6 10.5C7.38071 10.5 8.5 9.38071 8.5 8C8.5 6.61929 7.38071 5.5 6 5.5C4.61929 5.5 3.5 6.61929 3.5 8C3.5 9.38071 4.61929 10.5 6 10.5Z" fill="white"/>
    <path d="M7.5 8C7.5 8.82843 6.82843 9.5 6 9.5C5.17157 9.5 4.5 8.82843 4.5 8C4.5 7.17157 5.17157 6.5 6 6.5C6.82843 6.5 7.5 7.17157 7.5 8Z" fill="white"/>
    <path d="M8.29101 3.555C8.41671 3.61994 8.57345 3.57639 8.64053 3.45181L10.1023 0.73705C10.2817 0.403934 10.0404 0 9.66209 0H7.79601C7.61304 0 7.44468 0.0999435 7.35707 0.260574L6.63404 1.58612C6.59334 1.66074 6.59334 1.75093 6.63404 1.82554L7.32991 3.10131C7.36195 3.16003 7.41627 3.20318 7.48017 3.22297C7.76192 3.31022 8.03301 3.42171 8.29101 3.555Z" fill="white"/>
    <path d="M3.70778 3.55512C3.58202 3.61994 3.42527 3.57638 3.3582 3.45181L1.8964 0.73705C1.71703 0.403934 1.9583 0 2.33664 0H4.20271C4.38568 0 4.55404 0.0999435 4.64166 0.260574L5.9289 2.62052C6.0212 2.78973 5.89512 2.99749 5.70272 3.00903C5.0088 3.05067 4.32623 3.23636 3.70778 3.55512Z" fill="white"/>
  </svg>